<mxfile host="app.diagrams.net" modified="2024-07-04T02:56:38.609Z" agent="Mozilla/5.0 (Windows NT 10.0; Win64; x64) AppleWebKit/537.36 (KHTML, like Gecko) Chrome/126.0.0.0 Safari/537.36" etag="pc1FLBAxTwHVV5GE0P2x" version="24.6.4" type="github">
  <diagram name="Page-1" id="c7488fd3-1785-93aa-aadb-54a6760d102a">
    <mxGraphModel dx="2333" dy="1178" grid="0" gridSize="10" guides="1" tooltips="1" connect="1" arrows="1" fold="1" page="1" pageScale="1" pageWidth="1169" pageHeight="1654" background="none" math="0" shadow="0">
      <root>
        <mxCell id="0" />
        <mxCell id="1" parent="0" />
        <mxCell id="nJHyJpiOqpMIGT2mlFp9-104" value="" style="rounded=0;whiteSpace=wrap;html=1;fillColor=none;strokeWidth=1.5;" parent="1" vertex="1">
          <mxGeometry x="389" y="724" width="470" height="230" as="geometry" />
        </mxCell>
        <mxCell id="1mdNSNmWwVbFpzS0-b86-3" value="" style="endArrow=none;html=1;rounded=0;fontSize=12;startSize=8;endSize=8;curved=1;dashed=1;strokeWidth=1.5;" parent="1" edge="1">
          <mxGeometry width="50" height="50" relative="1" as="geometry">
            <mxPoint x="617.92" y="997" as="sourcePoint" />
            <mxPoint x="617.9200000000001" y="595" as="targetPoint" />
          </mxGeometry>
        </mxCell>
        <mxCell id="nJHyJpiOqpMIGT2mlFp9-142" value="" style="rounded=0;whiteSpace=wrap;html=1;fillColor=none;strokeWidth=1.5;" parent="1" vertex="1">
          <mxGeometry x="188" y="220" width="922" height="795" as="geometry" />
        </mxCell>
        <mxCell id="nJHyJpiOqpMIGT2mlFp9-12" value="&lt;span style=&quot;background-color: initial;&quot;&gt;终端&lt;/span&gt;" style="text;html=1;align=center;verticalAlign=middle;whiteSpace=wrap;rounded=0;fontSize=16;fontFamily=宋体;fontStyle=1;strokeWidth=1.5;" parent="1" vertex="1">
          <mxGeometry x="369.75" y="326" width="150" height="30" as="geometry" />
        </mxCell>
        <mxCell id="nJHyJpiOqpMIGT2mlFp9-25" value="" style="endArrow=none;html=1;rounded=0;fontSize=12;startSize=8;endSize=8;curved=1;dashed=1;strokeWidth=1.5;" parent="1" edge="1">
          <mxGeometry width="50" height="50" relative="1" as="geometry">
            <mxPoint x="261" y="994" as="sourcePoint" />
            <mxPoint x="261" y="354" as="targetPoint" />
          </mxGeometry>
        </mxCell>
        <mxCell id="nJHyJpiOqpMIGT2mlFp9-26" value="" style="endArrow=none;html=1;rounded=0;fontSize=12;startSize=8;endSize=8;curved=1;dashed=1;strokeWidth=1.5;" parent="1" source="nJHyJpiOqpMIGT2mlFp9-32" edge="1">
          <mxGeometry width="50" height="50" relative="1" as="geometry">
            <mxPoint x="436.59" y="694" as="sourcePoint" />
            <mxPoint x="436.74999999999994" y="354" as="targetPoint" />
          </mxGeometry>
        </mxCell>
        <mxCell id="nJHyJpiOqpMIGT2mlFp9-28" value="" style="endArrow=none;html=1;rounded=0;fontSize=12;startSize=8;endSize=8;curved=1;dashed=1;strokeWidth=1.5;" parent="1" source="nJHyJpiOqpMIGT2mlFp9-52" edge="1">
          <mxGeometry width="50" height="50" relative="1" as="geometry">
            <mxPoint x="807" y="1084" as="sourcePoint" />
            <mxPoint x="806.5699999999999" y="354" as="targetPoint" />
          </mxGeometry>
        </mxCell>
        <mxCell id="nJHyJpiOqpMIGT2mlFp9-29" value="" style="endArrow=none;html=1;rounded=0;fontSize=12;startSize=8;endSize=8;curved=1;dashed=1;strokeWidth=1.5;" parent="1" source="nJHyJpiOqpMIGT2mlFp9-54" edge="1">
          <mxGeometry width="50" height="50" relative="1" as="geometry">
            <mxPoint x="987" y="1124" as="sourcePoint" />
            <mxPoint x="987.1599999999999" y="353" as="targetPoint" />
          </mxGeometry>
        </mxCell>
        <mxCell id="nJHyJpiOqpMIGT2mlFp9-31" value="" style="rounded=0;whiteSpace=wrap;html=1;fillColor=default;strokeWidth=1.5;" parent="1" vertex="1">
          <mxGeometry x="251" y="374" width="20" height="331" as="geometry" />
        </mxCell>
        <mxCell id="nJHyJpiOqpMIGT2mlFp9-33" value="" style="endArrow=none;html=1;rounded=0;fontSize=12;startSize=8;endSize=8;curved=1;dashed=1;strokeWidth=1.5;" parent="1" source="nJHyJpiOqpMIGT2mlFp9-79" target="nJHyJpiOqpMIGT2mlFp9-32" edge="1">
          <mxGeometry width="50" height="50" relative="1" as="geometry">
            <mxPoint x="436.59" y="694" as="sourcePoint" />
            <mxPoint x="436.74999999999994" y="354" as="targetPoint" />
          </mxGeometry>
        </mxCell>
        <mxCell id="nJHyJpiOqpMIGT2mlFp9-32" value="" style="rounded=0;whiteSpace=wrap;html=1;fillColor=#E6E6E6;strokeColor=#000000;strokeWidth=1.5;" parent="1" vertex="1">
          <mxGeometry x="426.17" y="384" width="20" height="70" as="geometry" />
        </mxCell>
        <mxCell id="nJHyJpiOqpMIGT2mlFp9-37" value="输入用户名密码" style="text;html=1;align=center;verticalAlign=middle;resizable=0;points=[];autosize=1;strokeColor=none;fillColor=none;fontSize=16;fontFamily=宋体;strokeWidth=1.5;" parent="1" vertex="1">
          <mxGeometry x="276" y="380" width="130" height="31" as="geometry" />
        </mxCell>
        <mxCell id="nJHyJpiOqpMIGT2mlFp9-40" style="edgeStyle=none;curved=1;rounded=0;orthogonalLoop=1;jettySize=auto;html=1;entryX=0.005;entryY=0.359;entryDx=0;entryDy=0;entryPerimeter=0;fontSize=12;startSize=8;endSize=8;strokeWidth=1.5;exitX=0.964;exitY=0.105;exitDx=0;exitDy=0;exitPerimeter=0;" parent="1" source="nJHyJpiOqpMIGT2mlFp9-31" target="nJHyJpiOqpMIGT2mlFp9-32" edge="1">
          <mxGeometry relative="1" as="geometry">
            <mxPoint x="272" y="409" as="sourcePoint" />
          </mxGeometry>
        </mxCell>
        <mxCell id="nJHyJpiOqpMIGT2mlFp9-46" style="edgeStyle=none;curved=1;rounded=0;orthogonalLoop=1;jettySize=auto;html=1;fontSize=12;startSize=8;endSize=8;strokeWidth=1.5;" parent="1" edge="1">
          <mxGeometry relative="1" as="geometry">
            <mxPoint x="447" y="418" as="sourcePoint" />
            <mxPoint x="608" y="418" as="targetPoint" />
          </mxGeometry>
        </mxCell>
        <mxCell id="nJHyJpiOqpMIGT2mlFp9-53" value="" style="endArrow=none;html=1;rounded=0;fontSize=12;startSize=8;endSize=8;curved=1;dashed=1;strokeWidth=1.5;" parent="1" target="nJHyJpiOqpMIGT2mlFp9-52" edge="1">
          <mxGeometry width="50" height="50" relative="1" as="geometry">
            <mxPoint x="809" y="984" as="sourcePoint" />
            <mxPoint x="806.5699999999999" y="354" as="targetPoint" />
          </mxGeometry>
        </mxCell>
        <mxCell id="nJHyJpiOqpMIGT2mlFp9-60" style="edgeStyle=none;curved=1;rounded=0;orthogonalLoop=1;jettySize=auto;html=1;exitX=0.994;exitY=0.377;exitDx=0;exitDy=0;entryX=-0.014;entryY=0.18;entryDx=0;entryDy=0;fontSize=12;startSize=8;endSize=8;entryPerimeter=0;exitPerimeter=0;strokeWidth=1.5;" parent="1" edge="1">
          <mxGeometry relative="1" as="geometry">
            <mxPoint x="816.8799999999999" y="474.6299999999999" as="sourcePoint" />
            <mxPoint x="977.7199999999998" y="474.9200000000001" as="targetPoint" />
          </mxGeometry>
        </mxCell>
        <mxCell id="nJHyJpiOqpMIGT2mlFp9-52" value="" style="rounded=0;whiteSpace=wrap;html=1;fillColor=default;strokeColor=default;strokeWidth=1.5;" parent="1" vertex="1">
          <mxGeometry x="797" y="414" width="20" height="190" as="geometry" />
        </mxCell>
        <mxCell id="nJHyJpiOqpMIGT2mlFp9-55" value="" style="endArrow=none;html=1;rounded=0;fontSize=12;startSize=8;endSize=8;curved=1;dashed=1;strokeWidth=1.5;" parent="1" target="nJHyJpiOqpMIGT2mlFp9-54" edge="1">
          <mxGeometry width="50" height="50" relative="1" as="geometry">
            <mxPoint x="987" y="980" as="sourcePoint" />
            <mxPoint x="987.1599999999999" y="353" as="targetPoint" />
          </mxGeometry>
        </mxCell>
        <mxCell id="nJHyJpiOqpMIGT2mlFp9-54" value="" style="rounded=0;whiteSpace=wrap;html=1;fillColor=default;strokeWidth=1.5;" parent="1" vertex="1">
          <mxGeometry x="978" y="460" width="20" height="144" as="geometry" />
        </mxCell>
        <mxCell id="nJHyJpiOqpMIGT2mlFp9-57" value="访问接口，&lt;div&gt;判断&lt;font face=&quot;Times New Roman&quot;&gt;IAMi&lt;/font&gt;通信正常&lt;/div&gt;" style="text;html=1;align=center;verticalAlign=middle;resizable=0;points=[];autosize=1;strokeColor=none;fillColor=none;fontSize=16;fontFamily=宋体;strokeWidth=1.5;" parent="1" vertex="1">
          <mxGeometry x="638.3199999999999" y="405" width="150" height="50" as="geometry" />
        </mxCell>
        <mxCell id="nJHyJpiOqpMIGT2mlFp9-59" value="发起登录信息&lt;div&gt;验证请求&lt;/div&gt;" style="text;html=1;align=center;verticalAlign=middle;resizable=0;points=[];autosize=1;strokeColor=none;fillColor=none;fontSize=16;fontFamily=宋体;strokeWidth=1.5;" parent="1" vertex="1">
          <mxGeometry x="832" y="426" width="120" height="50" as="geometry" />
        </mxCell>
        <mxCell id="nJHyJpiOqpMIGT2mlFp9-61" style="edgeStyle=orthogonalEdgeStyle;rounded=0;orthogonalLoop=1;jettySize=auto;html=1;exitX=1;exitY=0.25;exitDx=0;exitDy=0;fontSize=12;startSize=8;endSize=8;strokeWidth=1.5;" parent="1" source="nJHyJpiOqpMIGT2mlFp9-54" edge="1">
          <mxGeometry relative="1" as="geometry">
            <mxPoint x="998" y="554" as="targetPoint" />
            <Array as="points">
              <mxPoint x="1019" y="496" />
              <mxPoint x="1019" y="554" />
            </Array>
          </mxGeometry>
        </mxCell>
        <mxCell id="nJHyJpiOqpMIGT2mlFp9-62" value="校验用户&lt;div&gt;登录信息&lt;/div&gt;" style="text;html=1;align=center;verticalAlign=middle;resizable=0;points=[];autosize=1;strokeColor=none;fillColor=none;fontSize=16;fontFamily=宋体;strokeWidth=1.5;" parent="1" vertex="1">
          <mxGeometry x="1013" y="500" width="82" height="50" as="geometry" />
        </mxCell>
        <mxCell id="nJHyJpiOqpMIGT2mlFp9-63" style="edgeStyle=none;curved=1;rounded=0;orthogonalLoop=1;jettySize=auto;html=1;exitX=0;exitY=0.75;exitDx=0;exitDy=0;entryX=1.039;entryY=0.817;entryDx=0;entryDy=0;entryPerimeter=0;fontSize=12;startSize=8;endSize=8;strokeWidth=1.5;" parent="1" edge="1">
          <mxGeometry relative="1" as="geometry">
            <mxPoint x="978" y="563" as="sourcePoint" />
            <mxPoint x="817.78" y="564.2300000000001" as="targetPoint" />
          </mxGeometry>
        </mxCell>
        <mxCell id="nJHyJpiOqpMIGT2mlFp9-64" value="返回验证结果" style="text;html=1;align=center;verticalAlign=middle;resizable=0;points=[];autosize=1;strokeColor=none;fillColor=none;fontSize=16;fontFamily=宋体;strokeWidth=1.5;" parent="1" vertex="1">
          <mxGeometry x="845" y="535" width="120" height="30" as="geometry" />
        </mxCell>
        <mxCell id="nJHyJpiOqpMIGT2mlFp9-68" value="" style="endArrow=classic;html=1;rounded=0;fontSize=12;startSize=8;endSize=8;curved=1;exitX=-0.002;exitY=0.854;exitDx=0;exitDy=0;exitPerimeter=0;entryX=0.994;entryY=0.305;entryDx=0;entryDy=0;entryPerimeter=0;strokeWidth=1.5;" parent="1" edge="1">
          <mxGeometry width="50" height="50" relative="1" as="geometry">
            <mxPoint x="796.96" y="573.26" as="sourcePoint" />
            <mxPoint x="628.2" y="572.6200000000001" as="targetPoint" />
          </mxGeometry>
        </mxCell>
        <mxCell id="nJHyJpiOqpMIGT2mlFp9-69" value="传输回执消息" style="text;html=1;align=center;verticalAlign=middle;resizable=0;points=[];autosize=1;strokeColor=none;fillColor=none;fontSize=16;fontFamily=宋体;strokeWidth=1.5;" parent="1" vertex="1">
          <mxGeometry x="653.32" y="547" width="120" height="30" as="geometry" />
        </mxCell>
        <mxCell id="nJHyJpiOqpMIGT2mlFp9-75" value="传输回执" style="text;html=1;align=center;verticalAlign=middle;resizable=0;points=[];autosize=1;strokeColor=none;fillColor=none;fontSize=16;fontFamily=宋体;strokeWidth=1.5;" parent="1" vertex="1">
          <mxGeometry x="491" y="510" width="90" height="30" as="geometry" />
        </mxCell>
        <mxCell id="nJHyJpiOqpMIGT2mlFp9-78" value="验证成功&lt;div&gt;设置登陆状态&lt;/div&gt;" style="text;html=1;align=center;verticalAlign=middle;resizable=0;points=[];autosize=1;strokeColor=none;fillColor=none;fontSize=16;fontFamily=宋体;strokeWidth=1.5;" parent="1" vertex="1">
          <mxGeometry x="466.18" y="642.5" width="120" height="50" as="geometry" />
        </mxCell>
        <mxCell id="nJHyJpiOqpMIGT2mlFp9-80" value="" style="endArrow=none;html=1;rounded=0;fontSize=12;startSize=8;endSize=8;curved=1;dashed=1;strokeWidth=1.5;" parent="1" source="nJHyJpiOqpMIGT2mlFp9-70" target="nJHyJpiOqpMIGT2mlFp9-79" edge="1">
          <mxGeometry width="50" height="50" relative="1" as="geometry">
            <mxPoint x="436" y="754" as="sourcePoint" />
            <mxPoint x="436" y="454" as="targetPoint" />
          </mxGeometry>
        </mxCell>
        <mxCell id="nJHyJpiOqpMIGT2mlFp9-83" style="edgeStyle=orthogonalEdgeStyle;rounded=0;orthogonalLoop=1;jettySize=auto;html=1;entryX=0.5;entryY=0;entryDx=0;entryDy=0;fontSize=12;startSize=8;endSize=8;exitX=0.5;exitY=1;exitDx=0;exitDy=0;strokeWidth=1.5;" parent="1" source="nJHyJpiOqpMIGT2mlFp9-79" target="nJHyJpiOqpMIGT2mlFp9-70" edge="1">
          <mxGeometry relative="1" as="geometry" />
        </mxCell>
        <mxCell id="nJHyJpiOqpMIGT2mlFp9-79" value="基本认证&lt;div style=&quot;font-size: 14px;&quot;&gt;是否成功&lt;/div&gt;" style="rhombus;whiteSpace=wrap;html=1;fillColor=#E6E6E6;strokeColor=#000000;strokeWidth=1.5;fontSize=14;" parent="1" vertex="1">
          <mxGeometry x="389.90999999999997" y="506" width="92.18" height="67" as="geometry" />
        </mxCell>
        <mxCell id="nJHyJpiOqpMIGT2mlFp9-82" value="" style="endArrow=classic;html=1;rounded=0;fontSize=12;startSize=8;endSize=8;exitX=0;exitY=0.25;exitDx=0;exitDy=0;entryX=1;entryY=0.5;entryDx=0;entryDy=0;edgeStyle=orthogonalEdgeStyle;strokeWidth=1.5;" parent="1" target="nJHyJpiOqpMIGT2mlFp9-79" edge="1">
          <mxGeometry width="50" height="50" relative="1" as="geometry">
            <mxPoint x="608.3199999999999" y="571" as="sourcePoint" />
            <mxPoint x="479" y="554" as="targetPoint" />
            <Array as="points">
              <mxPoint x="608" y="580" />
              <mxPoint x="545" y="580" />
              <mxPoint x="545" y="539" />
            </Array>
          </mxGeometry>
        </mxCell>
        <mxCell id="nJHyJpiOqpMIGT2mlFp9-84" value="是" style="text;html=1;align=center;verticalAlign=middle;resizable=0;points=[];autosize=1;strokeColor=none;fillColor=none;fontSize=16;strokeWidth=1.5;" parent="1" vertex="1">
          <mxGeometry x="439" y="570" width="40" height="30" as="geometry" />
        </mxCell>
        <mxCell id="nJHyJpiOqpMIGT2mlFp9-27" value="" style="endArrow=none;html=1;rounded=0;fontSize=12;startSize=8;endSize=8;curved=1;dashed=1;strokeWidth=1.5;" parent="1" source="nJHyJpiOqpMIGT2mlFp9-41" edge="1">
          <mxGeometry width="50" height="50" relative="1" as="geometry">
            <mxPoint x="616.64" y="1094.941162109375" as="sourcePoint" />
            <mxPoint x="616.8" y="364" as="targetPoint" />
          </mxGeometry>
        </mxCell>
        <mxCell id="nJHyJpiOqpMIGT2mlFp9-51" value="确定为远程验证&lt;div&gt;发送登录消息&lt;/div&gt;" style="text;html=1;align=center;verticalAlign=middle;resizable=0;points=[];autosize=1;strokeColor=none;fillColor=none;fontSize=16;fontFamily=宋体;strokeWidth=1.5;" parent="1" vertex="1">
          <mxGeometry x="451.18" y="370" width="130" height="50" as="geometry" />
        </mxCell>
        <mxCell id="nJHyJpiOqpMIGT2mlFp9-6" value="通信服务器" style="text;html=1;align=center;verticalAlign=middle;whiteSpace=wrap;rounded=0;fontSize=16;fontFamily=宋体;fontStyle=1;strokeWidth=1.5;" parent="1" vertex="1">
          <mxGeometry x="575.64" y="326" width="96.36" height="30" as="geometry" />
        </mxCell>
        <mxCell id="nJHyJpiOqpMIGT2mlFp9-92" style="edgeStyle=none;curved=1;rounded=0;orthogonalLoop=1;jettySize=auto;html=1;exitX=1;exitY=0.75;exitDx=0;exitDy=0;entryX=-0.039;entryY=0.414;entryDx=0;entryDy=0;entryPerimeter=0;fontSize=12;startSize=8;endSize=8;strokeWidth=1.5;" parent="1" edge="1">
          <mxGeometry relative="1" as="geometry">
            <mxPoint x="628.3199999999997" y="452" as="sourcePoint" />
            <mxPoint x="796.2199999999998" y="451.6600000000001" as="targetPoint" />
          </mxGeometry>
        </mxCell>
        <mxCell id="nJHyJpiOqpMIGT2mlFp9-100" style="edgeStyle=orthogonalEdgeStyle;rounded=0;orthogonalLoop=1;jettySize=auto;html=1;fontSize=12;startSize=8;endSize=8;dashed=1;exitX=0;exitY=0.5;exitDx=0;exitDy=0;strokeWidth=1.5;fillColor=#f5f5f5;strokeColor=#666666;" parent="1" source="nJHyJpiOqpMIGT2mlFp9-79" edge="1">
          <mxGeometry relative="1" as="geometry">
            <mxPoint x="399" y="707.5263157894738" as="sourcePoint" />
            <mxPoint x="273" y="539" as="targetPoint" />
            <Array as="points">
              <mxPoint x="330" y="539" />
              <mxPoint x="271" y="539" />
            </Array>
          </mxGeometry>
        </mxCell>
        <mxCell id="nJHyJpiOqpMIGT2mlFp9-98" value="否" style="text;html=1;align=center;verticalAlign=middle;resizable=0;points=[];autosize=1;strokeColor=none;fillColor=none;fontSize=16;strokeWidth=1.5;" parent="1" vertex="1">
          <mxGeometry x="351.82" y="540" width="40" height="30" as="geometry" />
        </mxCell>
        <mxCell id="nJHyJpiOqpMIGT2mlFp9-99" value="验证失败&lt;div&gt;返回重新输入&lt;/div&gt;" style="text;html=1;align=center;verticalAlign=middle;resizable=0;points=[];autosize=1;strokeColor=none;fillColor=none;fontSize=16;fontFamily=宋体;strokeWidth=1.5;" parent="1" vertex="1">
          <mxGeometry x="279" y="487" width="120" height="50" as="geometry" />
        </mxCell>
        <mxCell id="nJHyJpiOqpMIGT2mlFp9-101" value="" style="endArrow=none;html=1;rounded=0;fontSize=12;startSize=8;endSize=8;curved=1;dashed=1;strokeWidth=1.5;" parent="1" target="nJHyJpiOqpMIGT2mlFp9-70" edge="1">
          <mxGeometry width="50" height="50" relative="1" as="geometry">
            <mxPoint x="439" y="994" as="sourcePoint" />
            <mxPoint x="436" y="598" as="targetPoint" />
          </mxGeometry>
        </mxCell>
        <mxCell id="nJHyJpiOqpMIGT2mlFp9-70" value="" style="rounded=0;whiteSpace=wrap;html=1;fillColor=#E6E6E6;strokeColor=#000000;strokeWidth=1.5;" parent="1" vertex="1">
          <mxGeometry x="426.18" y="628" width="20" height="79" as="geometry" />
        </mxCell>
        <mxCell id="nJHyJpiOqpMIGT2mlFp9-127" value="" style="endArrow=classic;html=1;rounded=0;fontSize=12;startSize=8;endSize=8;edgeStyle=orthogonalEdgeStyle;strokeWidth=1.5;" parent="1" edge="1">
          <mxGeometry width="50" height="50" relative="1" as="geometry">
            <mxPoint x="446.15" y="649.26" as="sourcePoint" />
            <mxPoint x="446" y="686" as="targetPoint" />
            <Array as="points">
              <mxPoint x="476.15" y="649.26" />
              <mxPoint x="476.15" y="685.26" />
            </Array>
          </mxGeometry>
        </mxCell>
        <mxCell id="nJHyJpiOqpMIGT2mlFp9-106" value="" style="verticalLabelPosition=bottom;verticalAlign=top;html=1;shape=card;whiteSpace=wrap;size=20;arcSize=12;direction=east;flipH=0;strokeWidth=1.5;" parent="1" vertex="1">
          <mxGeometry x="679" y="904" width="180" height="50" as="geometry" />
        </mxCell>
        <mxCell id="nJHyJpiOqpMIGT2mlFp9-107" value="[&lt;font face=&quot;Times New Roman&quot;&gt;IAMi&lt;/font&gt;与&lt;font face=&quot;Times New Roman&quot;&gt;IAM&lt;/font&gt;通信中断]" style="text;html=1;align=center;verticalAlign=middle;whiteSpace=wrap;rounded=0;fontSize=16;fillColor=default;fontFamily=宋体;strokeWidth=1.5;" parent="1" vertex="1">
          <mxGeometry x="679" y="731.5" width="176" height="20" as="geometry" />
        </mxCell>
        <mxCell id="nJHyJpiOqpMIGT2mlFp9-108" value="[接受登录回执消息超时]" style="text;html=1;align=center;verticalAlign=middle;whiteSpace=wrap;rounded=0;fontSize=16;fillColor=default;fontFamily=宋体;strokeWidth=1.5;" parent="1" vertex="1">
          <mxGeometry x="390" y="731.5" width="194.32" height="20" as="geometry" />
        </mxCell>
        <mxCell id="nJHyJpiOqpMIGT2mlFp9-111" value="" style="rounded=0;whiteSpace=wrap;html=1;fillColor=#E6E6E6;strokeColor=#000000;strokeWidth=1.5;" parent="1" vertex="1">
          <mxGeometry x="427" y="784" width="20" height="150" as="geometry" />
        </mxCell>
        <mxCell id="nJHyJpiOqpMIGT2mlFp9-121" value="" style="endArrow=classic;html=1;rounded=0;fontSize=12;startSize=8;endSize=8;curved=1;entryX=0.51;entryY=0.333;entryDx=0;entryDy=0;entryPerimeter=0;strokeWidth=1.5;" parent="1" edge="1">
          <mxGeometry width="50" height="50" relative="1" as="geometry">
            <mxPoint x="607" y="811" as="sourcePoint" />
            <mxPoint x="447" y="811" as="targetPoint" />
          </mxGeometry>
        </mxCell>
        <mxCell id="nJHyJpiOqpMIGT2mlFp9-122" value="返回异常状态" style="text;html=1;align=center;verticalAlign=middle;resizable=0;points=[];autosize=1;strokeColor=none;fillColor=none;fontSize=16;fontFamily=宋体;strokeWidth=1.5;" parent="1" vertex="1">
          <mxGeometry x="461" y="778" width="120" height="30" as="geometry" />
        </mxCell>
        <mxCell id="nJHyJpiOqpMIGT2mlFp9-110" value="异常情况切换至后备登录模式" style="text;html=1;align=center;verticalAlign=middle;whiteSpace=wrap;rounded=0;fontSize=16;fontFamily=宋体;strokeWidth=1.5;" parent="1" vertex="1">
          <mxGeometry x="709" y="912" width="123" height="35" as="geometry" />
        </mxCell>
        <mxCell id="nJHyJpiOqpMIGT2mlFp9-9" value="本地数据库" style="text;html=1;align=center;verticalAlign=middle;whiteSpace=wrap;rounded=0;fontSize=16;fontFamily=宋体;fontStyle=1;strokeWidth=1.5;" parent="1" vertex="1">
          <mxGeometry x="519" y="864" width="90" height="30" as="geometry" />
        </mxCell>
        <mxCell id="nJHyJpiOqpMIGT2mlFp9-135" value="" style="endArrow=classic;html=1;rounded=0;fontSize=12;startSize=8;endSize=8;edgeStyle=orthogonalEdgeStyle;entryX=0.5;entryY=0;entryDx=0;entryDy=0;strokeWidth=1.5;" parent="1" edge="1">
          <mxGeometry width="50" height="50" relative="1" as="geometry">
            <mxPoint x="446.17" y="844" as="sourcePoint" />
            <mxPoint x="499.75" y="862" as="targetPoint" />
          </mxGeometry>
        </mxCell>
        <mxCell id="nJHyJpiOqpMIGT2mlFp9-136" style="edgeStyle=none;curved=1;rounded=0;orthogonalLoop=1;jettySize=auto;html=1;entryX=0.5;entryY=0;entryDx=0;entryDy=0;fontSize=12;startSize=8;endSize=8;strokeWidth=1.5;" parent="1" edge="1">
          <mxGeometry relative="1" as="geometry">
            <mxPoint x="499" y="859" as="sourcePoint" />
            <mxPoint x="499" y="859" as="targetPoint" />
          </mxGeometry>
        </mxCell>
        <mxCell id="nJHyJpiOqpMIGT2mlFp9-138" value="" style="endArrow=classic;html=1;rounded=0;fontSize=12;startSize=8;endSize=8;edgeStyle=orthogonalEdgeStyle;strokeWidth=1.5;" parent="1" edge="1">
          <mxGeometry width="50" height="50" relative="1" as="geometry">
            <mxPoint x="499" y="899" as="sourcePoint" />
            <mxPoint x="447" y="918" as="targetPoint" />
            <Array as="points">
              <mxPoint x="499" y="899" />
              <mxPoint x="499" y="918" />
            </Array>
          </mxGeometry>
        </mxCell>
        <mxCell id="nJHyJpiOqpMIGT2mlFp9-139" value="" style="endArrow=classic;html=1;rounded=0;fontSize=12;startSize=8;endSize=8;curved=1;exitX=-0.023;exitY=0.92;exitDx=0;exitDy=0;exitPerimeter=0;dashed=1;strokeWidth=1.5;fillColor=#f5f5f5;strokeColor=#666666;" parent="1" edge="1">
          <mxGeometry width="50" height="50" relative="1" as="geometry">
            <mxPoint x="426.53999999999996" y="926" as="sourcePoint" />
            <mxPoint x="259" y="926" as="targetPoint" />
          </mxGeometry>
        </mxCell>
        <mxCell id="nJHyJpiOqpMIGT2mlFp9-140" value="验证成功&lt;div&gt;设置登陆状态&lt;/div&gt;" style="text;html=1;align=center;verticalAlign=middle;resizable=0;points=[];autosize=1;strokeColor=none;fillColor=none;fontSize=16;fontFamily=宋体;strokeWidth=1.5;" parent="1" vertex="1">
          <mxGeometry x="491" y="899" width="120" height="50" as="geometry" />
        </mxCell>
        <mxCell id="nJHyJpiOqpMIGT2mlFp9-141" value="验证失败&lt;div&gt;返回重新输入&lt;/div&gt;" style="text;html=1;align=center;verticalAlign=middle;resizable=0;points=[];autosize=1;strokeColor=none;fillColor=none;fontSize=16;fontFamily=宋体;strokeWidth=1.5;" parent="1" vertex="1">
          <mxGeometry x="271.82" y="878" width="120" height="50" as="geometry" />
        </mxCell>
        <mxCell id="nJHyJpiOqpMIGT2mlFp9-18" value="统一身份认证系统" style="text;html=1;align=center;verticalAlign=middle;whiteSpace=wrap;rounded=0;fontSize=16;fontFamily=宋体;fontStyle=1;strokeWidth=1.5;" parent="1" vertex="1">
          <mxGeometry x="919" y="326" width="150" height="30" as="geometry" />
        </mxCell>
        <mxCell id="nJHyJpiOqpMIGT2mlFp9-3" value="用户" style="text;html=1;align=center;verticalAlign=middle;whiteSpace=wrap;rounded=0;fontSize=16;fontFamily=宋体;fontStyle=1;strokeWidth=1.5;" parent="1" vertex="1">
          <mxGeometry x="231" y="331" width="60" height="20" as="geometry" />
        </mxCell>
        <mxCell id="nJHyJpiOqpMIGT2mlFp9-14" value="统一身份&lt;span style=&quot;background-color: initial;&quot;&gt;认证接口机&lt;/span&gt;" style="text;html=1;align=center;verticalAlign=middle;whiteSpace=wrap;rounded=0;fontSize=16;fontFamily=宋体;fontStyle=1;strokeWidth=1.5;" parent="1" vertex="1">
          <mxGeometry x="717" y="326" width="180" height="30" as="geometry" />
        </mxCell>
        <mxCell id="nJHyJpiOqpMIGT2mlFp9-119" value="" style="rounded=0;whiteSpace=wrap;html=1;fillColor=#E6E6E6;strokeColor=#000000;strokeWidth=1.5;" parent="1" vertex="1">
          <mxGeometry x="608" y="778" width="20" height="79" as="geometry" />
        </mxCell>
        <mxCell id="nJHyJpiOqpMIGT2mlFp9-41" value="" style="rounded=0;whiteSpace=wrap;html=1;fillColor=#E6E6E6;strokeColor=#000000;strokeWidth=1.5;" parent="1" vertex="1">
          <mxGeometry x="608.32" y="400" width="20" height="195" as="geometry" />
        </mxCell>
        <mxCell id="19vD3YccdLdwmTqX8_FJ-4" value="" style="shape=image;verticalLabelPosition=bottom;labelBackgroundColor=default;verticalAlign=top;aspect=fixed;imageAspect=0;image=data:image/png,iVBORw0KGgoAAAANSUhEUgAAAMgAAADICAYAAACtWK6eAAAAAXNSR0IArs4c6QAAD2lJREFUeF7tnQu0blMVx38q5DJilLzy7CGuRwp5D0mRXBWGRy+PDEURKZWGV4lKQiLdiChquAxEDwaDDEIoVF6VZxqeI5Vn6bH/3X06n3PPOd9e37e/tdZec84x9jh33LNe8z/n/+y9155rzvlwcQQcgSkRmM+xcQQcgakRcIK4dzgC0yDgBHH3cAScIO4DjsBgCPgdZDDcvJcRBJwgRgztag6GgBNkMNy8lxEEnCBGDO1qDoaAE2Qw3LyXEQScIEYM7WoOhoATZDDcvJcRBJwgcQw9A5gJLAcsCSxV/9S/e69F6uU8CTw8yfVQ/X/3ADfHWbrtWZwgo7H/2sAsYBVg9fpqe6YngCuBXwI3AZe2PYGPB06Q9rxg5cpRt6mJ8Zb2hm080q+A8+rrzsa9vOG0CDhBhneQTYDd62v40YYf4V81Sc4GLhx+ONsjOEEGt/9WNSl2GHyIkfe8HDgdOGvkMxU6gRMk3LCvAw4GdgnvmqzH9dVmwMnAGclW0NGJnSBhhtu7JscyYd2yaX0KcCig3TCXBgg4QRqAVD3Tr1E1OxzYrlnzrFvdVpNEL/QufRBwgvR3Ee1InVl/w+jfujstjgEO7M5y06zUCTI97iLHFWlME2VWfTvZMspMHZ3ECTK14dYDruuoXUOWrS/2+rLvMgkCTpDJ3WKlapfqbkMe8yiwhCF9G6vqBJkXqoUBxUJZE4WtbGZN6X76OkHmReg//UAr+Pdz6m3suwrWMUg1J8gL4ToHyPnLeJBxB2ysO8k7gOcG7F9UNyfIuDm/Wj1afaoo6w6uzKcB4WFenCBzXUB3Dd09XOYi8Ls6Kvle64A4QWD++kzFWtadYYL+pwF7WMfECQL7Acdbd4Qp9H838CPL2FgnyMuAGwAddnKZF4FrgI0tA2OdIJ8FvmTZARro/hng6AbtimximSAKr9B5biVScJkagcfqu4jJY7yWCfJJQBGtLv0ROIG572rmxDJBrgY2MmfxwRS+A1h1sK7d7mWVIOvWj1fdtl7c1b+18ND/SdG0SpCvAQfE9a/Oz/blKvzkoM5rEaiAVYI8ACwbiJX15sq7pYR4psQiQUo/JThKB14fUIYUM2KRIB8AvmfGwu0q+vlqOCWvMCMWCXIi8DEzFm5X0R/XQYztjprxaBYJcqPFZ+mWfNDc+XVrBFHk7j9acharw5h6D7FGECWavsqqZ7ek976AHlNNiDWCKFGa2cC7ljxaSfR2bWms7IexRhCl2ywhfWhKx1Lq0tVSLiDm3NYI8iDQ1cTTMf2i31xLW0mAbYkgKwDmz1j38/yGv98WuKBh2043s0SQnaqagT/stLXyWfxXAB02K14sEeQ4YP/iLRpHQe0EbhpnqrSzWCLItYD28F2GR+BZYKHhh8l/BEsEsZxSdBSeqMheRfgWLVYIsmj1eKW64i7tIaD0pJe0N1yeI1khiO9gte9/+p50fvvD5jWiFYKsCdySF/SdX42ODRRfXtoKQTwGq30+fhhQ1dyixQpBZlUh7hcVbcn4ymnL/Ovxp407oxWC+CnC9v3qcxayUlohiE4QmgnRbp8Lk474ReCQSHMlm8YKQfTX7shkKJc58bGAslMWLVYIojMgOgvi0h4C3wL2bm+4PEeyQpDZgHZdXNpDwMTBKSsEURSvonld2kPgXAsFT60Q5GfAlu35ho8E/KQqPrR16UhYIYjyOb2zdGNG1k/lojeLPGf06awQ5Axgl+jolj3hHGDHslUEKwRRoZzityQjO+s3LWSotEIQr0XYPntM5Om1QhDV+z61fR8xPaKiE3QXKVqsEET1vk1k4YjorXr/0HtI0WKFIOvU9dCLNmZk5bSDpZ2sosUKQV4MPF+0JeMrtzygSl1FixWCyIg6UaiThS7DI6AM+QsOP0z+I1giiH8Lac8fbwdmtjdcviNZIohOwCl5nMvwCJipNGWJIF68c3hijI1wArBfe8PlO5IlgsyozoQ8la8pOrWy9wNnd2rFAy7WEkEE0W+A1QfEyruNI+DlDwr1htOA3QvVLZZaVwNKo2RCrN1B9gJONmHZ0Sl5BHDo6IbPa2RrBFmjKsF2a14m6NxqTOTkHbOKNYJI73uAFTvnlnks+CFgpap4jsofmBCLBPkGsI8J67avpM72v7f9YfMd0SJBlJVc1W5dwhFQmh+l+zEjFgmyOKBqtwuYsXJ7iq4K3NHecPmPZJEgsooncQj3zeuqgjkbhHfrdg+rBNmzqpf+7W6bLvrqTSSrnoiqVYLoMeu31TeRJaO7WXcnNPd4JVNZJYh0V/LlT3TXX6OuXHFXir8yJ5YJ4sdwm7u7ChDpvc2cWCaIjK38stubs3qYwqZir/wd5IUIeLaT/mQx9+2jFxLrdxBhcRmweX8/Mdnij1W6pLWAJ01qb/wlfczmevn8vlUH6KP34ZWPKIOiWfE7yFzT6yPYema9YHLFddfQ3UN3EbPiBJlreh2i0mEql3EETJRY62dwJ8g4QudYqJjUzyHq3/+tDiu5rWH7Yps5QcZNq8NUF1d3EmUMtC4mMrc3MbIT5IUoKQTl0SbAFdzGRGm1pvZzgkyO1BVVYmbl0bImCuD8iDWlp9PXCTI1OtbeSVRDxTcqJviDE2T6P5cWjufqnLlqyF/kd455EXCC9PeKksu3KeO97hw39YfBZgsnSDO77wz8oFnTzrT6KbAb8EhnVpxgoU6Q5qArM7wyxJcgvwc28h27/qZ0gvTHaKzFYoB2txR+0XVRhsnZXVcixvqdIGEovwc4P6xLdq0vBbbMblWZLsgJEmaYEj4kKu7su2Fq223tBAm3fddrHS7h7x7Nje4EaY7VWMvvAB8K75ZFD5VtVvlml4YIOEEaAtXT7KAqK+NR4d2y6OFBiIFmcIIEAlYnvtYX9i6KEyTQak6QQMDqj2unh3fLoocTJNAMTpBAwOo0QUoX1EVxggRazQkSCBiwRXXa7pLwbln0cIIEmsEJEggYsHV98jC8Z/oeTpBAGzhBAgGro19PDe+WRQ9zFaKGRd0JEo6gygAcGd4tix6/Bt6UxUo6sggnSLihTqpCxD8a3i2LHk8DK1Rb1Y9lsZoOLMIJEmakBatHrAeAV4Z1y6q1Tg+ektWKMl6MEyTMODoPonMhXRbPWhJgPSdIc7B0DkTnQXQupOuiwkHHd12JGOt3gjRHuaT8vU/UQYs3N1ffZksnSDO7dzmCdyoNLwC2baa+3VZOkP62VwmAw/o362QLbVcf3MmVR1q0E2RqoBcFjq5zRkUyR5JpTu7wtvXIAXOCTA7xVsARVTK1tUdugTwm0OPWIXVp7DxWlMkqnCDzGkLEsPjYofxYIony87rUCDhBxl3hg/VhqDcb944z6hrytxrH4X/qO0Fgm5oYCmN3mYvAs8CJ9XWfZVCsEmTFuprUDsC6lh2gj+4PA2cCc6ow/xss4mSJICvXNT+U1UN3jYUtGnwInRWiIqIoC/zjQ4zTqa4lE+RFPYQQKZSL1mV4BPQVXicqdSlL44PDD5nvCKURZCng7cDmNTkU2u0yOgSemUCWu0c3VZqRSyCIHp1EirFrRhoozc/67/qOclUV5/Xz6uz+L0pApKsEWaeHEJ4pME9PVIkFEWWMMPfnuczpV9UlgswE3lW/YG/YRbANr1l3lzGynAWIPJ2QLhBE1WZ1fkHkcOk+AvrGcnZ9XZ67OjkT5DXAAR5Il7sLDbU+bRkrtOXioUYZYedcCaKkCAoz7/LZ7xGarbihsyVKjgQp8XBScR49IoWyO5+SG0Euq79hjAh/H7YDCFwIqNRdFpITQZT1b6csUPFFpEYgm8wruRBENfN2TW0Vnz8rBJS7Szm8kkoOBLF6QCmp4Tsy+TmpnypSE+T1wPVVMjad/3ZxBCZDIGkmyNQEUSmzfdwvHIFpEFAA5CbV49afU6CUkiCv7VLIQQrj+Jz/R0B/SD+eAo+UBNkXOCGF0j5n5xDQ3eNVKVadkiDaylN6HRdHoAkCGwBK/xpVUhFEZQQUtObiCDRF4EDgmKaN22qXiiC6c+gO4uIINEUgyRf2VATRzpVevFwcgaYIKBP9G5s2bqtdKoKoNsV+bSnh45hAQMkhlo2taSqCKLx5Vmxlfb5OI/BPYIHYGqQiyO3AKrGV9fk6j8DLqyePv8TUIhVB9NfgJTEV9bmKQEB/VO+MqUkKgihX1b0xlfS5ikFg0zpLSjSFUhBESd10MMrFEQhFQLmUzw3tNEz7FARRdObsYRbtfc0ioM8DJ8XUPgVBVNZMX0VdHIFQBL4Qu15kCoKcB2wXioy3dwTqJ4+9YiKRgiBX1ImlY+rpc5WBwPmx/7g6QcpwHCtaXFNt8GwcU1knSEy0fa5hEbitKuKz2rCDhPR3goSg5W1TI/BQ9R6ydMxFOEFiou1zDYvAc8BLhx0kpH8KguhFK5vMeSFgedssEFik+kzwVKyVpCDI6VWoyW6xFPR5ikNgeeCBWFqlIMhxwP6xFPR5ikPgDdVW762xtEpBEJU1OCyWgj5PcQio5N6VsbRKQZAt6sqosXT0ecpCQPXtn46lUgqCvKLKpvhYLAV9nqIQuBFYN6ZGKQgi/W4B1oypqM9VBAJKNBg1l0Eqgqgu3Z5FmMyViInA7oBKZUSTVARRDcKocf3REPWJRomA0v4o/U80SUWQdYAbomnpE5WAwLXAhrEVSUUQ6amjk9vHVtjn6ywCO1aBinNirz4lQWYCqiAUNTozNsA+XysInFZ9Pd+jlZECB0lJEC11CeB9wM7AeoFr9+blI/An4NiqApmiL5JIaoL0Kr0y8Lb6Wj92WHMS9H3SiQjcBdw04fp7SphyIshEHJSHVS/zuvRxSD+VWc+lDATuq9LP6sOfNmv0U9dfc1MtZ4JMhtWre8giwiiyU5dnaczNs8bXo9D0+4E/9BBBpHg03yWPr6xrBJkK02V6yDJGmt6fCm9xGQ0CKo8mAkx1PT6aaeOMWgpB+qGlADcRZrm61p0IpUt173p/9hvH0u91ek/Or0ulByb+e4wQz5cMihWCNLXhZKQZ+z+9/yzWc3XxsU5l757oufSYMxUBPKAUcII0pc687XT0s5cwiwNL1lvX2r4eu6aaQWerFwJmTLjmr8O5n5nkp7LiTyb6/0eAh+uf+rcuPd70EsLrQgba2wkSCJg3t4WAE8SWvV3bQAScIIGAeXNbCDhBbNnbtQ1EwAkSCJg3t4WAE8SWvV3bQAScIIGAeXNbCDhBbNnbtQ1EwAkSCJg3t4WAE8SWvV3bQAScIIGAeXNbCDhBbNnbtQ1E4L+U39bYVMDnyQAAAABJRU5ErkJggg==;" vertex="1" parent="1">
          <mxGeometry x="231.00000000000003" y="266.3299999999999" width="64.67" height="64.67" as="geometry" />
        </mxCell>
        <mxCell id="19vD3YccdLdwmTqX8_FJ-5" value="" style="shape=image;verticalLabelPosition=bottom;labelBackgroundColor=default;verticalAlign=top;aspect=fixed;imageAspect=0;image=data:image/png,iVBORw0KGgoAAAANSUhEUgAAAMgAAADICAYAAACtWK6eAAAAAXNSR0IArs4c6QAAD7tJREFUeF7tnW2MHVUZx59nFtk2RMFAq8FGUTZad85st64RixAoEF6k8KGCJhIFBQpWCKCJRAKRBAwJIQUxCkUUUyIRmmooYKi8ikgVXUrvnFmg1pDw4gdBCC3Jutv2HjtLt2FLd5kzPXPuec7932S/nTnP//ye+WXm7p0XJnxAAASmJcBgAwIgMD0BCIK9AwRmIABBsHuAAATBPgAC9QjgCFKPG7bqEgLiBcmy7Mx2u72ImecR0ZwO9G0zM/+Rmde3Wq1XOlAfJRskIFKQvr6+3tmzZ19mjPkOEX28QT62U68nopu01vfYbojxYRIQJ0iapv3MfCcRfS5MpBOpVmmtzw44H6JVJCBKkCzLPrVTjLXGmLTi+jo57L9a60M6GQC1952AKEGUUr8loq/t+7K9zXCr1ro8DcRHKAExgmRZ9i1jzK+kcU6S5IRWq/WItNzI+w4BMYIopR4iohMENu7pbdu2nfDCCy9sFZi96yOLEGRgYGBeu91+WWq3jDFnFUVxl9T83ZxbhCBpmi5m5kelNoqZr83z/Cqp+bs5twhBsiy7wBhzq+BGrdFanyE4f9dGFyGIUupmIrpYcJee2/njYb/g/F0bXYogjxHRsZK7pLUWwVoy4yayi2iaUgqCNNF9zPm+BCDI+yJyMwBHEDccfc8CQTwRhyCeQDsuE7sgix3zKqf7UZ3vQxCkgU54mDJqQZrYKet+H2oii4f9o+tLQBDLXQCCWAITPhyCWDYQglgCEz4cglg2EIJYAhM+fK+CKKXKH+XKv2MCWp/1D4VNnPfXFWQnz8cDYokoUwncz8xP5Xle3jI95TNFkCzLFhHRtcaY42IgGJggMSCNfQ3DzLwiz/PdV17vFkQpVT5o4MyYCECQmLrpdS0PaK2XlBUnBEnT9FJmvtFrBA/FIIgHyJGWMMacXBTFOh4YGJhrjNlgjDk0trVCkNg66m89zFyMjo4eyUqpc4nodn+l/VWCIP5YR1ppOadpegcznxPjAiFIjF31uqY15RHkdSI62GtZT8UgiCfQ8ZZ5sxRkAxENxrhGCBJjV72u6ZlSkJuI6BKvZT0VgyCeQMdb5obyO8jZzPzrGNcIQWLsqr81GWNO4aGhoUPGxsaeJqJP+ivtpxIE8cM5xirMfH2e55dP/FCYZdkyY8zK2BYKQWLrqL/19Pb27j88PLxt96UmaZquZOZl/iI0XwmCNM84wgrD7XZ76cjIyEvl2va8WHGo3W4vY+bjiehw6YuHINI76C1/+dzkB5n54TzPb3t31WnvB1m4cOGcbdu2hfIejmDuA9+Hy92buD/e2x4UcyGt9bS3IuCGKcvO1xWkiaOZZXQMr0EAglhCgyCWwIQPhyCWDYQglsCED4cglg2EIJbAhA+PWpAG7wMP4v544fueiPixCxJME/AlPZhWWAWBIFa46g+GIPXZdXJLCOKJPgTxBNpxGSmC3E1EX3W8dp/Tvaa1nuuzIGq5ISBCkDRNr2Tma9wsuSOzPKG1DukhfB2BILGoFEHOYObVEgHvyrxSa32h4PxdG12KIAuY+VnBXbpEa12+iBQfYQRECLJo0aLZW7dufY6IPiGM72TcE7XWDwnN3tWxRQhSdihN0/OY+RcCu/Wk1vpogbkRec/7QUInopQS998sY8zZRVGsCp0t8u2dgJgjyGR8pdQbRPRhCQ01xvysKIqLJGRFxkgEKZehlFpLRKcF3tTVWmvJv90EjtdPPHFHkEksAT+RfswYc2NRFD/000JUaZKAWEF2fXE/uXwLFjOXV9d+sUlQFeZ+tXwIeJIka1ut1jMVxmOIAAKiBXk338HBwYO2b9/u/RGqSZJs6enpeXnDhg2vCeg3IloSiEYQy3VjOAhUIgBBKmHCoG4lAEG6tfNYdyUCEKQSJgzqVgIQpFs7j3VXIgBBKmHCoG4lAEG6tfNYdyUCEKQSJgzqVgIQpFs7j3VXIgBBKmHCoG4lAEEi7Hyapv1JkpSvrpi388LJA30vkZn/Njo6+pfNmzdv8V3bdT0I4ppoB+dTSp1LROcQ0VEdjPHu0uuI6K9a66sDyWMdA4JYIwtvg/KIwcwriOik8NJNJPp7kiTfbrVaOtB808aCINI6tkfeXadT9xhjQnkb2ExEL9Va/0QScggiqVt7yaqUeoCIvixlGcz82TzPnxeTV0pQ5HwvAaVUeW5fvr9R0qeltV4gJTCOIFI6tUfOvr6+3tmzZ7eMMZ8WuIQrtNbXScgNQSR0aS8Z0zQ9nZnvFRqfxsfH52zatOn10PNDkNA7NE0+pdT3iegGofGp3W4fPTIy8mTo+SFI6B2aJl+WZbcZY84XGp+MMcuKogj+SZkQROgeppRaH8CTXGrTM8asKIqiPAoG/YEgQbdn+nBKqbeJ6ACh8cvYf9Banxp6fggSeoem/w5ihEafjP241npx6GuAIKF3CIJ0tEMQpKP46xdXSuEIUh9f5S0hSGVUYQ2sKcjjRPSnBlZS59d8nGI10AhMuYtAXUGaOO8PKYvrHQRHENdEPc0X0k4ZUhbX+CGIa6Ke5gtppwwpi2v8EMQ1UU/zhbRThpTFNf5pBVFKle/cKP/wCZNAMF+M6wrS0D8MrLvFzOvyPC+vTHjPZ4og5euWt2zZ8mNmPouI5lpXwgahE2jkP0c1BQmKFTP/u91u3z9r1qwfDA8PvzUZbrcgWZadaYy5J6jUCOOaAASpRnS51vqWcuiEIP39/UclSfLnattilGACEKRi83p6ej6zcePGTROCKKX+QURDFbfFMLkEIEj13k28pZhxalWdWAQjIYhFE40xX+c0TVcw82UW22GoXAIQxK53t5eCvMDMEm/8t1sqRpcEIIjdfvAiBLEDJn00BLHr4IQgOMWygyZ5NASx697t+JJuB0z6aAhi0cGJL+n4N68FMflDIUj1Hr7zb95yPH4orE5N+EgIUrGBU34oLLfB7yEVyckeBkGq9W/qpSaT2+BixWr0BI+CINM0730vVtxzO1zuHrwGuNzdUYsqX+7uqB6m8UCg5iXmIR1BGsniGj3uKHRN1NN8EMQPaAjih7PzKhDEOdK9TghB/HB2XgWCOEcKQfwg9VOlriAN3QcezD8MXNPHEcQ1UU/z1RTEU7pKZfAlvRImDKpFAILUwma9EY4g1sjC2ACC+OkDBPHD2XkVvEDHOVJ8SfeD1E8VvILND2ccQfxwdl4FL/F0jhRHED9I/VTBa6D9cMYRxA9n51XSND2dme91PrGnCcfHx+ds2rTpdU/lapeBILXRdX5DpdR9RLSk80nsEhhj7iqKonz+c/AfCBJ8i6YPODQ0dMjY2NgrRNQrbBlLtNYPSMgMQSR0aYaMSqmlO28IXSNoGddpra+QkheCSOnUDDmzLFtmjFkpYCkTD0IQkHN3RAgiqVszS5IZY+4I+CHkv9RanycNNwSR1rEZ8g4NDR04Pj5+tTGmfDPYYCBL+40x5s6iKNYFkscqBgSxwiVn8Pz58w/r6ek5lpkP853aGPMfIir/efBkURRv+K7vsh4EcUkTc0VHAIJE11IsyCUBCOKSJuaKjgAEia6lWJBLAhDEJU3MFR0BCBJdS7EglwQgiEuamCs6AhAkupZiQS4JQBCXNDFXdAQgSHQtxYJcEohCkL6+vg/19vbOY+a5LuFUmStJks2tVqu8rAKfCAmIFWThwoVztm/ffm75osXyBVkd7k3LGPNIkiTr8zxf3eEsKO+QgEhB0jRdzszfI6LDHbJwNdW6JEnOw1HFFc7OziNOEKXU1URU52HJXkkbY84uimKV16Io5pyAKEHSND2fmW9zTqG5Cb+ktX6quekxc9MExAiSpukCZn6YiA5pGorD+d/WWn/Q4XyYyjMBMYJkWbbCGHOZZz4uyol6SIGLBcc0hwhBytdTb9269UUi+ohQ+CdqrR8Smr2rY4sQZNfp1bOCO3WJ1vpmwfm7NroUQc5gZsm/L6zUWl/YtXuZ4IVLEeRKZr5GMOcntNbHCM7ftdFFCKKUupuIRD1wbI896jWttffLYLp2r3a4cCmCPEZE5bOexH601iJYiwXcUHARTVNKQZCGdgBMOzMBCOJpD8ERxBNox2ViF+Rxx7wmp7M+3YMgDXWi4WmjFqSJnbLu6V4TWRreNzA9EUEQy90AglgCEz4cglg2EIJYAhM+HIJYNhCCWAITPnxGQZRS1l9GG+JR3iBlnaWJ8/66ghDR4obYYNp9JKC1nvafOe8RJE3TbyZJ8hVjzPFEdMA+1u7o5oEJ0lEWKD4jga1E9GB5v1Ge51NuyNstyPz58w/eb7/9biGiM2OBCUFi6aTXdQy32+2lIyMjL5VVJwTp6+vrnTVr1v+8xvBQDIJ4gBxpid7e3v2Hh4e3TQiilFpLRKfFtlYIEltH/a2Hma/P8/xyTtP0JGZ+0F9pf5UgiD/WMVYyxpzCUh6jU6cBEKQONWzzLgI3lIKUj6VZFCMWCBJjV72u6ZlSkC1EFOWjaSCI150pxmJvloKIv9dius5AkBj3Wa9rWlN+Sf8pM1/ktaynYhDEE+h4yywvjyBLiOi+GNcIQWLsqp81MXMxOjp6JH4HseQd8ympJYqohxtjTi6KYt3uS02UUv8sf1SPadU4gsTUTa9reUBrXZ5ZTb1hKk3TS5n5Rq9RGiwGQRqEG+fUw8y8Is/zuyaX956reRcsWPCxHTt2HMHMRxhjvhAQB+mXuzd1f3xALRIb5X5mfirP8/V7rgA3TFn2tO53kCaOZpbRMbwGAQhiCQ2CWAITPhyCWDYQglgCEz4cglg2EIJYAhM+PGpBGroPPJj744XveyLixy5IME3Al/RgWmEVBIJY4ao/GILUZ9fJLSGIJ/oQxBNox2UgiGOg000HQTyBdlxGiiDlCzAvdrx2n9M9p7Xu91kQtdwQECFIlmUXGGNudbPkjsyyRmt9Rkcqo+g+ERAhSJqmi5n50X1aaQc3ZuZr8zy/qoMRULomARGCDAwMzGu32y/XXGPHNzPGnFUUxe4rRDseCAEqExAhSLkapdQqIvpG5ZWFM/Ctdrs9MPkoy3BiIUkVAmIEGRoa+sDY2Fj5vNSPVllYQGNu0VovDygPolgQECNIuab+/v7jkiR5xGJ9nR76fE9PzwkbN258tdNBUL8eAVGC7DrVupqIyuuhJHyWaq1/LyEoMu6dgDhBdknyeWa+1xhzaKCNfY2Zv5vn+epA8yFWRQIiBSnXNjAwMLfdbv+ciE4lolkV19v0sFEiuoOIVmit/9V0MczfPAGxgkyiGRwcPGjHjh3l/erHGGMGm0c2tQIzbzHGvGKM2bDT298VRfGG7wyo1xwB8YI0hwYzg4CQ96SjUSDQKQI4gnSKPOqKIABBRLQJITtFAIJ0ijzqiiAAQUS0CSE7ReD/bAZLLu239BYAAAAASUVORK5CYII=;" vertex="1" parent="1">
          <mxGeometry x="778.25" y="268.72" width="57.5" height="57.5" as="geometry" />
        </mxCell>
        <mxCell id="19vD3YccdLdwmTqX8_FJ-6" value="" style="shape=image;verticalLabelPosition=bottom;labelBackgroundColor=default;verticalAlign=top;aspect=fixed;imageAspect=0;image=data:image/png,iVBORw0KGgoAAAANSUhEUgAAAMgAAADICAYAAACtWK6eAAAAAXNSR0IArs4c6QAAG0JJREFUeF7tXQuYHUWVrtM3k4mB0UB8gSwCxoSZqr4ZjCgBg9H1uQjiA/mU9QGL36KLD5DH4rIgPnbB1fVBdkFcRVGBBRVExQeiiKugOCaZrppkIkoAcXeBgJAAk5m5fbbPbE+c3LmPrrrdffvee+r75iN8t86j/uq/H1WnzgHBjRFgBOoiAIwNI8AI1EeACcJXByPQAAEmCF8ejAAThK8BRsANAX6CuOHGUj2CABOkRyaah+mGABPEDTeW6hEEmCA9MtE8TDcEmCBuuLFUjyDABOmRieZhuiHABHHDjaV6BAEmSI9MNA/TDQEmiBtuLNUjCDBBemSieZhuCDBB3HBjqR5BgAnSIxPNw3RDgAnihhtL9QgCTJAemWgephsCTBA33FiqRxBggvTIRPMw3RBggrjhxlI9ggATpEcmmofphgATxA03luoRBJggPTLRPEw3BJggbrixVI8gwATpkYnmYbohwARxw42legQBJkiPTDQP0w0BJogbbizVIwgUgiBr165dsG3btrVhGC4RQiwBAPrvnj0yBz0xTACYQMQ/0Z8Qgv5+ZYx5qOiDbxtBDj744KV9fX3HIOLRQgj6W1B0sNi/1BH4BgBcF4bh94pKltwJIqXc0/O8UxHxVCHEs1KHnBV2IgL3AcC6MAzXGWN2FGkAuRJEKXUKABA5ZJFAYF+KgQAAGERcp7W+tBgeCZEbQZRSHxJCnF+UgbMfhUbgK1rrtxXBw1wIIqW8mJ4cRRgw+9AxCIxqrVe229vMCaKU+okQYm27B8r2OxMBrXXm12gjZDI17vv+txDxmM6cGva6IAhcp7V+fbt8yYwgSqlPCyHe166Bsd3uQQARLzTGnNOOEWVCEKXU64QQ32zHgNhmdyIAACcEQXBl3qPLhCC+79+MiC/NezBsr6sRCPr7+9eMjIw8kucoUyeI7/snIuIX8xwE2+oNBNrxqpU6QZRSvxBCrO6NKeNR5o3A9PT0gZs3b96al91UCVIul/cLw/DeFpy/ABE3L1iw4DcbN27c0oIeFi0YAkqpZwghaF+jjIhnR6ElT3VxERFPNMZ8yUXWRSZVgvi+fxwiXuPgyGbP844dHR0dd5BlkQ5DQEq5txDiegBYY+s6In7JGHOirZxr/1QJopT6vBDiZEtnHtFaU3g7tx5DQEp5OQC8w2bYiLjVGHOgjUwrfdMmyProzjBs4xAAnBQEweU2Mty3OxAol8t7VCoVDQAH2IxowYIFe23YsIHOlGTe0ibIw3TgycLrtu6SWvjJXTNCQEp5FgBcZKMeEQ8xxmywkXHtmxpBhoeHl0xPTxNBbNoFWmuK8uXWowgopV4jhPi2zfAB4HVBEFxvI+PaNzWCSCmHAYBesRI3AHhTEATXJhbgjl2HwODg4D6lUumPNgNDxNOMMRTKlHlLjSBKKYrYpchdm/YSrfUtNgLct/sQUEqh5ahye/NggljODHdPHwEmSH1M+QmS/vXWcRqZIEyQjrto83SYCcIEyfN66zhbTBAmSMddtHk6zARhguR5vXWcLSYIE6TjLto8HWaCMEHyvN46zhYThAnScRdtng4zQZggeV5vHWeLCcIE6biLNk+HmSBMkDyvt46zxQRhgnTcRZunw0wQJkie11tqtgYHB59dKpWOFULQEdeliLgUAPYSQjyd/l8I8RQhxANCiG2I+IDneQ9HdV8eRMT7qZTBxMTEDXfeeeejzRxSStketDtDa/3JZnrT+J2jedNAsct0DA0N7e953rq48lero/uY1vrcRkqUUtcJIYiISVtuQa5MkKRT0iP9fN/fCxHp4Nuz0xoyIl5pjDmhnj7L2jHjU1NTh46Pj29Py79GepggeaDcQTZcMo0kGR4ivtEY8416fX3fvw8R922my/O8I0dHR3/WrF9avzNB0kKyC/SUy+UDwzD8fUZD2ay1Hqyne2ho6IWe593exHZuJwln/WCCZHQ1dKJapdQ/CSEyKzPQ7O5fLpefjoifr1FT5h4hxLla66/kjSsTJG/Ei2vP833/3iSvOS0M4XKt9UnN5JVSZUpTGq+a/QoRR9tV/ZYJ0my2euR33/dfjYg3ZjzcxzzPe8bo6OhjGdtJTT0TJDUoO1uRUopyKh+X9Sg6LZMmEyTrK6IN+uMk4msQcZkQ4l4A2DA5OXntli1bHqzlDiWTBoBtObn60yjVU92irkNDQ5ISwwHA8qhmOmWAv8PzvO8HQXBbTv7tZoYJ0g7UM7Lp+/6qaNf7y4goa5kAgO+HYXhFqVS6YfY1R0r5ZgC4QAjx3IzcmqcWEb8nhPjgbPpQKpuBiCcg4pvjEgm1XLm2r6/v79avX08797k1JkhuUGdryPIbYkIIQXsSqsEFma3D/6+dsmpS3ZAjExq7e2pq6vDx8XGrTIwJddfsxgRpBb2CyPq+fyQi/jRPdxDxIgAgohHJ3pCj7fHp6ekjNm/enMsrIRMkx5nNwhS9VkUFU28VQizOQn8dnbdprQ+n35YvX/7UhQsX0h29L0f7G6emptbkEW7CBMlxVtM2pZSinWn6eKWo2jzbyVrrL8wajPYtqOQ3lf7Os/2iv7//5SMjI49naZQJkiW6GeqOw0J+KYR4WoZmaqmet5fhUsIgJZ9vQcRXGmMmU9I3Tw0TJCtkM9QrpVwYLYVuFEIcnKGZeqpr7YZ7Sqn/FUI4FeZscQyf1Vq/r0UddcWZIFkhm6FeKeUnAeD0DE3UUz1ZqVSWb9q06e7qDlLKdwLAZW3wSYRh+JdjY2M/zsI2EyQLVDPUqZSij+P/EkKkNncW7p6ltf6Xev2VUrSSlnTJ1sJs464A8EfaWMwihCU1kLmATmrzXVcRFb0Mw3BMCLF/9tZ2s/AY1TY3xvy7EKJusZsVK1YM9PX1UeWnpgGJGfifKBDS1i4TxBaxNvb3ff8yRHxnzi780PO8U0ZHR++atTs0NHSI53m7rZx5nnf3bB+l1CuixYN/E0JQqEue7Wit9XfSNMgESRPNDHVJKYcoEUKGJuaqpm+My8Iw/OrY2Ng95XL5eYi4lv6EEPQ3UMeP/xZC3Eyl+MIw/JHneftRHfQcSX231tqqpHQzPJkgzRAqyO9KqTOjzcCPu7iDiFstapFfPDAwcPa2bdv26O/v/xAivkUIQZlMXNo4AHwKAG4Jw/ByIcTqhErogJTTa2QYhmpsbCy1GwkTJOGMtbubUopWaV7i4MfMMii9FsVRshQWMlRDzx0AcEYQBLf6vn86Ip4vhHiyg715IhHJtggh3gsAK4QQfy+E2Ke6EyLSk+e6MAy/uXjx4kd27tx5Rx0/G7oEAB8IguBf0/CbdDBB0kIyYz1KqZ8LIWbCOyzab7XWy6v7l8vlFWEY0nfC3ohIYSIbjDF3lMtlFd2Bvy6EoAs59RYR5KpSqfTuqampwwCAIo4HAGBLGIbfN8Y8NNfgypUrl1cqlXFbJ+LFBKcnbS1bTBDbGWhTfynlP0fBgXT3tWrR683aIAiaBjJKKd8IAHTme5GVAcvO8XfUMUEQNEwO4fv+RYh4lqV6AQCHp3l2hAliOwNt6q+UOkoI4bJCM6q1XtnIbd/3z0NEOhOSV9sWhuFRY2NjFCozr/m+fxAi/s7BmQmt9ZMc5OqKMEHSRDNDXatWrXrKzp07/yCE2NPWDACcEgTB52rJtfLxb+tHVf/tYRiurvVBrZT6thDiNQ76b9Ra040ktcYESQ3K7BXFH88uOWm3TUxMHFSdJzd+raJDS+1qf5icnDxk7lFg3/dfhog3uTjkeZ4/OjqqXWTryTBB0kQzB11Kqc0uH9HVyRLiUPlf53yOpBZCP9Fav3T2B6UUnXR8vS2UtJwcBEHq8WlMENuZaHN/KeURAECxWFaNzqMHQfDqORciLaM+30pJRp1nXwHjUBU6KWh7+OrBqampg7I4QMUEyWjSs1SrlLpaCHG8jQ1aPQqCgI7HCinl26ONwy/ZyGfcl8on0A74MwHgtw623qq1/qqDXFMRJkhTiIrXwSXshDbijDEviwlyl8XOel4AnIuIn4k2+myztqceXjJ3wEyQvKY/RTu+778WEa+3VPk1rfVfK6XeJIT4T0vZud0pDOQWANgURxbvEekb9DxvkE73NYjTambyIa31UqXUDiEE6UzcBgYGFt92221PJBaw6MgEsQCrKF2llBcCwNmW/pyptf6EUuoGx8I4FOa+juK06l2MSqm/EEJcEQc0WronBCK+Kh6XbUjNEVrrX1gbTCDABEkAUtG6KKV+YnsR0knAxYsX37dz506XvLhPeJ73yqR1OVpYjr40+rbaFAVHfsYGc0Q83RjzKRuZpH2ZIEmRKkC/4eHhA6anpykqtm7qzlpuUjSvMeZAKSXdoSmroVWL6g6eaoyh8x2Jm0NZNXqCbCmVSq9yqFESAsBnt2/ffs7WrVspV1dqjQmSGpTZKooKXVJiggsdY6VmTttJKT8MAP9o6elN0esLBTZateHh4SXT09N0+nFe5G4jRXHJA3qKUKFQ23ZnGIYnjo2NWS+D1zPEBLGdgpz7x08NWsI8wtU0BTkGQXCRS/4q+i4wxvzAxbZS6mOUg9dGFhFfBAAXtTDeMKrAS2dazknjw50JYjN7OfdVStFex3+4xF/NdTXK7n5sEATfivJX0c45JbhO3KJXl72DIKAyzdbN9/1jEZEq2CZu0evgOwBgTZSV/m8SC9XuSIe1aNwUeeDcmCDO0GUr6LpjXsOrysTExN4Uh+X7/m8Q8RALz2ueJ0kqTyXVwjCkfFk27YOISPs0V9kI1en7wNTU1HNa2WFngqQwC1mo8H1f1ytjYGlvV6yT7/u3R6UHXphUHhF/ZoxpKY2PUqpuFpRafgDAxycnJz/a19f3aFI/G/UDgI8GQWD73bVLJRMkjVlIWUdco48yJ7badgohXqC1HiVFvu/fHCW63hUYmED541EeLKtNu7k6fd/3qb5gAjt/viABzguC4CNKKSomSkVFW233aK2da74zQVqFPwN5KeXbAODLraqurk0eRfDSDjrtpCdulUrlgFqZFJMocIz5epfWmvZDiNBXxkV1kpir24dWxqqP9CZVyARJilSO/dJI44mIpxljKInbruZybJfqgBhjrI/6klGlFJ0YfIENdADw8iAIfjQro5T6rhDir2x0VPctlUr7bdy48T4XHUwQF9QylpFSvpLC0x3N/I7uupSEoVre933KUUUbjVYNAMpBEAQ2QkqpU6LqUZfYyFBfRNzHGPM/VcQ+GQBod92pBorW2vk6dxasHjinHrW9FOr3l1Iucwj7DhHx04899tg/1NtNdtRLjv5aa01PgkQf3FLK2bB12+PBv9daP6cWMnGcF61sWe0H0e68McY5SwsTJL3rOlVNtqs/UUXYdcaY9zRzQim1VQjh8tFKrz0naa3vbWSjXC6vCcOQzpoc1MyXGr9fqrV+VyM5pdSdQoiaJKoj9x2t9dEOvsyIMEFckctYTilFydZsKs/+UGtN4eYNW4sZTB5HxDMXLVr0tZGRkUfmGooL+lA4TCu1Og7VWtNmZs22atWqxbbBlq0exWWCNLui2vS7w8cpnYegEHjaOd5c706/YsWKffv6+pw+WKugoOVbyrdFMVO0V2IVc1UD1l11D6t/832fCgUdHC9RN31KVsm/W2tt/S00q4MJ0iYCNDOrlKKP0vc269fg94m4CtWNnud9Ye4qjlKKInPf3YLuLERfobWeyWZSLpcPQ8STwjB8MdX9aMVY9aqYrS4miC1iOfWP47Do7Hla7Qqt9dtJWfwRTZkNU02y5uro7HHgODCTYreGXXVVy/X39y+pfh200c0EsUErx75Syj0dzmc38/Amz/NeR5WYlFIfiIIgP9FMII/fS6XSikqlUopLJ7T6qjbX5R9prV/eyhhSIwg9FsMwpJLEiRsAHBUEwY2JBXqso1KK9kKafnhbwnK91ppKNlPhzduFEIdayqfanULxn3jiiUsWLVpE305pkoPy9L4nCIJ1rTicGkHixzYVULFpDWve2Sjqxr6um20JsDhea31NnEH9V22osz7r4szKm1KKzrG/NYHfVl1a2UGfNZQaQUihUopWUmyyg39Fa/02q1H3UOfBwcF9SqUSlSdIuz0chuEwVY+KUwhRbY5npm2kib6ZJ1kKWVZqmgGA9UEQPK/VMaVNEDoqaVO7+/EwDF9aL8t3q4PrBnnbEHWLMf9uwYIFz9+wYcOfBgcHn1sqlaj+yNMs5J27AsANS5cufcP9999/mOd5RM6FzsrqCALA+UEQfLhVvWkTxCWv6khUeLEQKTBbBTML+fgs+m5BhynauX3Hjh0vodAUpRTtTlMEsVUoh60viHihMeacODcwfbPuVgzUVl+9/gAw2OppQtKdKkGklBRU9nnbQQLAp4MgOM1Wrhf6H3DAAYsGBgYoAHHfLMZbvdMspTwNAFIrYTbrM8VERelPj5s9m6KUouDHmVSoGbRdS9qt6k6bIK1UYt1AdfGiwip3bNq0yfZjv1UcCi3v+/6Lowqzt2TlZBiGa+ZmAonLPFMZs5lUpS02Ckm5bMeOHefNBlE6Jr5L5AYR0fO8w1zP0VcbSZUgpDylo6IUEOdSYSgRiJ3QKa5M+8toKfyOIAhG4mhpCpmw+cZLOtSZtKTVneNVrpOFEPRnW+n2NgC4bPv27VdXRxe7pBdNOJCrS6XSGa5nP2rZSJ0gUspzAeAjCQfE3ZIhcLHWeibspFwu71epVJ4LAAdRAmpEPFAIQZnRKXrWdR+hbhzUrHu+76+mJ00c+vFsRNwfAPaL4r9o5fKuKNL3HgCgSNuNk5OTt4yPj9dcfVu+fPlTFy5c+ECyYdfsRTdOskdRyXdRgodSqXRXpVLRxhjK65tqS50gcakwOknmHIOf6gi7RFmScHaXNDsxPPdHAX3PyAMqKeWhAEB7L7btQUT0qw9T2Sqx7Z86QeLXrFOjc8AX2zrD/RsjEN0t326MoU21uk0pRd8OZ9pgCQB/DILgWfVkfN/fCxEPpzrnFAAZhmGlRt89EZGebL9slEhaSrkyyle1wcY/6kuRvMYYykmca8uEIDQCh3DtXAfeicbmFsFpQhLb/aiNWut5AYKrV69+0vbt2+l1meK2bNqfAOD0IAjmHe9duXLlsyqVChUjTdzaucqZGUFiklBu1sHESHDHpghUKpV9m63yKaXWW0bEzsu/S6WYo2+Om1sptBMlqfuWMebY6kE5nJac2TtpCk4GHTIlSEwS2/CTDIbZVSobnrqjkfq+f5/NvgkiXmmMOWEWpbhO+a1CiLqvXRaI3tTf33/UyMjI1KyMUoqSwg1Y6PhidACs1VSkFub+3DVzgpApKSXlSW3p4IvT6LpPaBIRB4wxk01esRIlV5ij46ta65lgwXhH/WctrIjNcy3K5vg9Y8yu1D1KKVrhSrziRqEpQRC8th3TmQtBYuCvEUIc145BdpHNpsuxcdkB62TTFNyHiHTS8KNZBC4CwI+JKEKIM6J0QFYrZvThHwTBYe2Yx9wIEpOEwlBo04mbAwIA8KYgCK5tJBoHHlLCh25qddMBZT3IXAkSvx8fSRWL+GliPbUzRXCaSUkpX0B33Gb9Ouz3h7XWe7fD59wJMjtI3/dfjYjHxAUl0/gYbAd+edm8RGudKMmCUooio+dlVczL0Yzs5LaRWe1/2wgy1xHf9yko7sVhGC6J1ryXCCHozzYrX0Zzk5paq7qC0WIUHR3YjIjrjTH070RNKUXv97ul7kwkWOxOv9FaWxX+SWs4hSBIWoMpqp6807IqpSiUo61nzdOci7QOP7n4xARxQc1SJm+C+L6/ChGJJJ6lq0Xs/nvP88qUiaUdzjFBckA9b4LEiyEvQ8SvZ3ViLwfYKCvJes/zjk4zfN3WbyaILWIO/dtBEHIzzjRDlWabrn5ZDuuTQojvzJGheK0XWepo1P1xIcR5Wmuy09bGBMkB/nYRZHZo8SvX52wr3NaB5hNa692iheOgRsr+fniLcGJ0zuUKADhrdHT0/hZ1pSLOBEkFxsZK2k2Q2DuQUr41rkHumuJnHjlmR54CSUYA4G/p9GQOU5LYBBMkMVTuHQtCkJkBLFu2rL+/v/94uhht7vhJVpJiklCmzKRL2hRTdn0Yhp8bGxv7sTvC2UkyQbLDdpfmIhFk7nDL5TLlxD0VAN7RZN/p/VpryjafqCmlKOn28Q060/HcS8IwvMy1uGYiR1LoxARJAcRmKopKkLmvR48++uhxAPDOuR/bFFxYKpVOGx0dHW82xurfpZTHxLkJyvFvFOJ+EwBcOrdIp63evPszQXJAvOgEqXqq7IGIB6f1LbBs2bInL1y48DljY2N0iKvjGhMkhynrJILkAEdHmWCC5DBdTJAcQM7IBBMkI2DnqmWC5AByRiaYIBkBywTJAdgcTDBBcgCZnyA5gJyRCSZIRsDyEyQHYHMwwQTJAWR+guQAckYmmCAZActPkByAzcEEEyQHkPkJkgPIGZlggmQELD9BcgA2BxNMkBxA5idIDiBnZKJrCLJixYqBvr4+ynxBfzZ5XzOCdp7a8y0NXWDZP8/uG4UQo1G60q6vAtYVBCmXy2vCMKSsjVy0J0+aCFGzdFu+LmRrreMJopT6UFRfxfbunC2qvaX9Ia310m4dckcTRClFGckbVlzq1okr2Liu1lq/uWA+peJOxxJESrknVVwSQuyfChKspFUELtBa09O8q1rHEkQpRRk0ft5Vs9HZg/mB1vpVnT2E+d53LEGklO8HgE9124R08Hge1Vo/pYP9r+l6xxLE9/3jEJGK8nArAAKIuMUY03WriB1LECnlUPwNUoDLg12ISkRfFQTBW7oNiY4lCE2E7/u3IuKabpuUThxP9AR5S/QEuaoTfW/kc6cT5CBE7Prd3KJfdIh4tjHm40X308W/jiYIDZhetTzPuwYRpQsALNMyAl29m97xBJmd3nhHnSqhrhZCPLnlaWcFjRDYIIS4PSrS812t9dws712HWtcQpOtmhgdUCASYIIWYBnaiqAgwQYo6M+xXIRBgghRiGtiJoiLABCnqzLBfhUCACVKIaWAniooAE6SoM8N+FQIBJkghpoGdKCoCTJCizgz7VQgEmCCFmAZ2oqgIMEGKOjPsVyEQYIIUYhrYiaIiwAQp6sywX4VAgAlSiGlgJ4qKABOkqDPDfhUCASZIIaaBnSgqAkyQos4M+1UIBJgghZgGdqKoCDBBijoz7FchEGCCFGIa2ImiIsAEKerMsF+FQIAJUohpYCeKigATpKgzw34VAgEmSCGmgZ0oKgJMkKLODPtVCASYIIWYBnaiqAgwQYo6M+xXIRBgghRiGtiJoiLABCnqzLBfhUDg/wCjkJdfPuf9oAAAAABJRU5ErkJggg==;" vertex="1" parent="1">
          <mxGeometry x="955.44" y="261.29999999999995" width="68" height="68" as="geometry" />
        </mxCell>
        <mxCell id="19vD3YccdLdwmTqX8_FJ-7" value="" style="shape=image;verticalLabelPosition=bottom;labelBackgroundColor=default;verticalAlign=top;aspect=fixed;imageAspect=0;image=data:image/png,iVBORw0KGgoAAAANSUhEUgAAAMgAAADICAYAAACtWK6eAAAAAXNSR0IArs4c6QAAEDpJREFUeF7tnQmsJFUVhv9bD54YHY3GYQliUMFhXt3qcQAX3CKKEodNEJBIWAwwoiagqKghUUmIRgVEo1EWIQEUgYg6gGBQGREdIxlHum49tlFUEPctbgPD1PHVOOgT3+u+91bd7ltdfycTSPqcU/d8p77X3dXVVQp8kAAJLEpAkQ0JkMDiBCgI9w4SGECAgnD3IAEKwn2ABPwI8BXEjxuzOkKAgnRk0GzTjwAF8ePGrI4QoCAdGTTb9CNAQfy4MasjBChIRwbNNv0IUBA/bszqCAEK0pFBs00/AhTEjxuzOkKAgnRk0GzTjwAF8ePGrI4QoCAdGTTb9CNAQfy4MasjBChIRwbNNv0IUBA/bszqCIGRC5Km6aFKqT2VUstEJANQ/XtSR3izTXcCfweQK6VyEblHRO4rimKNexm/jJEJ0uv1dFmW5wN4jd9SmUUC/yFwG4ALjDFfCc1kJIJorc8CcE7oZli/cwSuTpLkgn6//4NQnQcXRGt9I4BVoRpgXRIAsMIY0w9BIqggaZqeqJS6LMTCWZME5hG43Rjz8hBEggmitX4tgG+EWDRrksACBM41xrynaTJBBMmyLCvLco1SavemF8x6JDCAwPHGmCuaJBREEK316dVRhiYXylokMIyAiKwpiuKwYXEuz4cS5EoAx7oshLEk0ACBv27atGnpxo0bH26g1tYSoQS5F8CeTS2SdUjAloBS6qA8z79uGz8srnFBtNY7Afj1sA3zeRIIQUBEzi+K4l1N1Q4hyCsB3NrUAlmHBBwJrDXG7O+Ys2g4BWmKJOvEQoCCxDIJriNKAhQkyrFwUbEQoCCxTILriJJApwU52xjzoSjHAkBrXa3tgxGub72IVKeI36GU+tXW4/tKPU9EDgZwSM31fkEpdVNZljcppZ4GoFedPDhGDhSk5kCDpccmiIjcmyTJeXmeX7RY01mWHSUi13hA+YtS6p15ni94MqrWujqaWf2xqP47ygcFGSVtl23FJgiA/Y0xa4f1sHLlyqWbN2/+7bC4ec/fbYxZbhOvtb4ZwIE2sQ3FUJCGQDZeJjJBnN6ObvuLb/X9VZIke/X7/XtsAC5fvnyXqamp6wHsYxPfQAwFaQBikBKxCKKUeujRRx/d96677tr6ecP2obW+DsDhQ+KdxKtqZVn2ZhG51HYdNeMoSE2AwdJjEWRun/yyMeZI10Zt1q+UOjrP82tdanu8hXMp//hYClKHXshcmx0s5Pbn1f64MeZM123ZvM1KkmS3fr//oEft6u3bKD6wUxDX4YwqPiJBPmeMeatr31rrNwL40qC8JEme0+/37/eo/UcA1WHg0A8KEpqwb/2IBLnFGFP95NnpkWXZGSJy3qAkETmlKIpLXApXvzAVkSAXVVhgHRTEZTijjI1IEJRl+fLZ2dnbXfpP0/Q2pdTAix/MXfDvqjzP3+RY98K5AwerXXJqxFKQGvCCpsYkSPVBfcmSJcetW7funzZNu6xdRM4oiuITNnWzLHudiDT2AyaLbVIQC0hjCXHZyUa0wG9uv/32J2zYsOGhQdvr9Xo7lmX5G8c1HTP3ZeHVg3LSNN1DKXWfY9264RSkLsFQ+REKUrV6B4B3LFmyZMNCryY1L7BRfQF4kTHmhvlMtx3WPQbAp0KxHlC324KMAbjrJmM8WbHqobqQgQGwQURKpVQKYBmAZ7g2uED8AwDuBtBXSq0UkepzzPYN1PUp0WlBfIAxp1sEKEi35s1uHQlQEEdgDO8WAQrSrXmzW0cCFMQRGMO7RYCCdGve7NaRAAVxBMbwbhGgIN2aN7t1JEBBHIExvFsEKEi35s1uHQlQEEdgDO8WAQrSrXmzW0cCFMQRGMO7RYCCdGve7NaRAAVxBMbwbhFohSCjuLzLJI9d5t0/cv7/P9azy/MLcVqo5vy4Yc8vxn5Yns/zLr1ujW3yAueN32Fqkvda9tY9AhSkezNnxw4EKIgDLIZ2jwAF6d7M2bEDAQriAIuh3SNAQbo3c3bsQICCOMBiaPcIUJDuzZwdOxCgIA6wGNo9AhSkezNnxw4EKIgDLIZ2jwAF6d7M2bEDgcYF2XafO4clMJQEmiNgc194l62FEKScdyaqy1oYSwK1CRhjGt2nGy1Wdae13gxgu9qdsgAJeBBogyCbADzBozemkEBtAm0Q5B8Anli7UxYgAQ8CbRDkrwCe7NEbU0igNoE2CPJnAE+t3SkLkIAHgTYI8oe5mzc+3aM3ppBAbQJtEOS3AJbW7pQFSMCDQBsE+RWAnT16YwoJ1CbQBkEeBLBr7U5ZgAQ8CLRBkJ8DeJZHb0whgdoE2iDITwE8u3anLEACHgTaIMh9APbw6I0pJFCbQBsEuRvAstqdsgAJeBBogyAFgBmP3phCArUJtEGQvDqpt3anCxdYG6huk2VjvnD37wBUf8B2A/DMJk8qFZGfKaV+D6AHYLpJoC612iDIjwGscGnKIfbsJq/c7bBdq1Ct9YcAfNAqeLRBZ87tuNcZY37y2GZ7vd6OW7ZseVOSJCeLSOq5nD+JyClKqduNMb+paqRpOp0kyT5lWZ6olFrtWdc7rQ2CrAewt3eHgxMpiBvY/tTU1Ko777zzl4ulLV++fJftttvuFldJlFIbpqenX7Z+/frq7O0FH1mW7QPgAyJyqNuy/aPbIMgPAbzAv8WBmRTEHuxPjTHPtQ3XWrscXNlkjLH6ScOKFSt23bJly3dHdei/DYKsA/Bi28E4xlEQS2BlWb5idna22jGtHlmW7Sci37cJFpEji6L4sk1sFaO1Prx6i2cbXyeuDYLcDuCldZockEtB7MCuM8a8xC70v1Fa60qQ/QblVR/Gi6Jw/iI4TdPfKaWe4bom1/g2CPIdAK9wbcwynoLYgTrPGPNuu9D/EcTmIMPXjTEHedS+Zu4I2lGuea7xbRDk2wD2d23MMp6C2IHa3+fyN5ZH4bxmoLX+DIC32S3fP6oNgtwC4AD/Fgdmeg0n0Fr+r6zlDjaK5Xhxsly/111ktda3Agj+HVEbBLkZwIGB9gKvwQdaS8yCrDfG7Ovad5qm9yuldh+WlyTJTv1+v/phnPVDaz2SH9K1QZAbAayyJucWSEEseSml3pLn+UWW4dWRpvfPfQP+Ycv4M40xH7eMrWpfDOBk2/g6cW0QZA2AQ+o0OSCXgliCVUoVZVkeXRTF7LAUrXX1fcnGYXHzn0+S5IB+v/+tYTm9Xu/Qsiy/NiyuqeejFyRN06/Ofct6WFMNP64OBXEAW0kiIu+be7t1w2JpWuuDAVzvUHZrqFLqXgDnLfYqte2UkzNE5COutevERy+I1rr6AumIOk3yFaRxetcrpdZW32EA+GNVXURemCTJESLyoppbq04tulpE+g8//PC6HXbYoTrNqHqL/eqApxwtuuQ2CDKS4901h8r0CSXQBkGuAnDMhPJnW5ETaIMgVwI4NnKOXN6EEmiDIJcDOG5C+bOtyAlEL0iappcppU6MnCOXN6EEohdEa30JgJMmlD/bipxA9IKkaXrhOH5qGfncuLwREYheEK31ZwGcOiIe3AwJ/A+B6AXJsuzTIvJ2zo0ExkEgekG01p+c+7b2tHHA4TZJIHpBsiw7X0TeyVGRwDgIRC+I1vpcAO8aBxxukwSiFyTLso+KSHWhMj5IYOQEohdEa1396Kb68Q0fJDByAm0Q5BwAZ42cDDdIAgCiFyRN07OVUh/gtEhgHASiF2QcULhNEghFQIUqzLokMAkEKMgkTJE9BCNAQYKhZeFJIEBBJmGK7CEYAQoSDC0LTwIBCjIJU2QPwQhQkGBoWXgSCFCQSZgiewhGgIIEQ8vCk0CgcUG01sHvATEJ4NlDOAI+Nw9abDUhBKnuE17dyosPEhgHAa+7a1GQcYyK2xwHAQoyDurcZmsIRC+IzZ1SW0ObC20dAQrSupFxwaMkEL0g/JA+yt2B23o8AQrCfYIEBhCIXhB+BuH+O04CFGSc9Lnt6AlELwg/g0S/D030AqMXhG+xJnr/i745ChL9iLjAcRKIXhC+xRrn7sFtUxDuAyTQ5sO8fAXh/jtOAtG/goT8kL52nOQttx3z72H6AO4E8CcArwGw3LKnYWF/A1DVrv49CcBrAew0LCnQ89ELEvIV5GxjTLS/NdFah/zjUGd/uqu6qVFRFN+YX2RmZuZFSZK8D8DraxS/XkTOKIpi4/waWZa9XkSqfeH5NWr7pFIQH2qjyIlUkKF/VGZmZlYmSfIjD0ZvMMZcNygvTdNjlFJXedT2TYlekJB/RYcO25dqE3kRCnK5MeYEm9601m8E8CWb2CpGKXVqnucX2sSP+NbgFMRmKOOIiUyQv5dlOTM7O/sLWxZa6zsA7GsRf4sxpvqcYfXQWve2ffaxiq8ZREFqAgyWHpkgdxhjXujSbJZlF4nIKcNylFIX5HnudKPWLMuMiKTDajfwPAVpAGKQEpEJ8nljzMkujaZp+jal1Gcsco4zxlxpEfefEK31NQCOcsnxjKUgnuCCp0UmyLnGmPe4NJ1l2SoRudEi52BjjE3cfEE+BsBpPRbrWCiEgniCC54WmSBXGGOOd2laa13twNWOPPAhIquLorh4WNz857XWlVCrXHI8YymIJ7jgaTEJIiLfKoriAJemtdaXAzjOIsf5aGKapvcrpXa3qF03hILUJRgqPyZBtvX4YWOM1R2He73e3mVZ3grgKZZ8rHdErfVJAC6xrFs3zHpdNhsKcWVFfg9iQ35EMbZ3fdVa3wzgQNtlKaUeyvN812HxK1euXLp58+bqFJSdh8U29DwFaQhk42UifAXZ2qNSalWe5zct1HCWZfuUZbl6bodf7QpEKVWUZXl0URSzC+XOzMy8empq6jQROdS1do14ClIDXtDUWAXZ1vTVInLb9PT0tY888shSANV3JPv5iDEfolLqn2VZXpEkyTfzPL+2Ek5EVlS1ATgdZm5oOJ0WpCGGLDPBBCjIBA+XrdUnQEHqM2SFCSZAQSZ4uGytPgEKUp8hK0wwAQoywcNla/UJUJD6DFlhgglQkAkeLlurTyBuQdI0PVEpdVn9PlmBBNwJJEnynH6/f7975sIZIc7Fqi4ls+CpB00tmnVIYCECIvKzoiie3SSdxgWpFjfCU5ubZMFaLScgIl8siuLYJtsIIojWelS/HmuSBWu1n8BJxphLm2wjiCDVArXWawAc0uRiWYsEFiMgImuKojisaULBBOn1ejuWZVldyW/UV9ZrmhHrtYCA7e9eXFsJJki1kGXLli2Znp4+S0Te67owxpOAJYHTjTGfsox1DgsqyGOrmZmZeZVS6vC5S1Aum7t6314AdnNeKRNI4N8EHgBwt4jcU10JsiiK74UEMxJBQjbA2iQQkgAFCUmXtVtPgIK0foRsICQBChKSLmu3ngAFaf0I2UBIAhQkJF3Wbj0BCtL6EbKBkAQoSEi6rN16AhSk9SNkAyEJUJCQdFm79QQoSOtHyAZCEqAgIemydusJUJDWj5ANhCRAQULSZe3WE6AgrR8hGwhJgIKEpMvarSdAQVo/QjYQkgAFCUmXtVtPgIK0foRsICQBChKSLmu3nsC/AAQK5hRSx2uDAAAAAElFTkSuQmCC;" vertex="1" parent="1">
          <mxGeometry x="593.5" y="266.97" width="61" height="61" as="geometry" />
        </mxCell>
        <mxCell id="19vD3YccdLdwmTqX8_FJ-8" value="" style="shape=image;verticalLabelPosition=bottom;labelBackgroundColor=default;verticalAlign=top;aspect=fixed;imageAspect=0;image=data:image/png,iVBORw0KGgoAAAANSUhEUgAAAMgAAADICAYAAACtWK6eAAAAAXNSR0IArs4c6QAAEoBJREFUeF7tnX+QJdVVx8/pebNMKHZNAqKGCBuz7K++PbubBWUDVaE0EUhICKiQUqJJAEXApZJUEspfQMoyaGLKxEQiIgaJuhYG0SCQ1RhCGViwll2mb8/s6qqjhKQSogFnJQM77x3fhRmc3Z15/et03/f6fbtq/nr3fs89n9Pf6d/3MpXYjDGnichZzLyOmVeLyGoicn9jJWTRFQSKEpglomlmnhYR9xcz8xestU8UFeS8HY0xlxHReUR0FhF9X97+aA8CHgg8QEQ7mXlnHMe788TPbJAwDM9h5vcS0Tl5AqAtCPQTARG5JQiCW7IaJdUga9asWTU2NvZxInJHDmwg0AgCzigrVqz41T179jzVK6GeBjHGbCCiW7uHp9c3ggqSAIHDCRwgoiuste4UbMltWYMYYy4kortAFASaTkBErk6S5PeXynNJg4RheBUzf7rpYJAfCCwicJG19q+OJHKUQYwxZxPRl4EOBIaQwEZr7dTivA8zyJYtW7730KFDDxHRmiGEg5RB4KHZ2dnzDhw48D8LKA4ziDHGXZDjbhV2lKEl4O5uJUnyC0cZZP45x/1DSwaJg8A8AWY+beE5yUtHEGOMMwceAmI3GXoCi48iLxhk/vURd3qFDQRAgIgWjiILBtlBRJeADAiAwEsEbrTW3vCCQaIoerJ7WHkV4IAACLxIgJkfieP4DA7DcBMz7wUYEACBwwkw82vZGLOdiD4BOCAAAkcR2O4McjMRXQk4IAACRxH4DEdRdJ+InAs4IAACR51i3e+OIO7dk/WAAwIgcBSBfc4g38U35Ng1QGBJArPOIAI4IAACSxOAQbBngEAPAjAIdg8QgEGwD4BAMQK1HkGCILjg+eefn9i3b990seGily8CxphxIrqWiN7jaww+4tZmEGtt6hRDPgAgZj4Cw/bdUC0GYeaL4zi+M18p0LpfCQzTt0O1GISITi4zP2q/7ijDOi5jzA1EdP0w5F+LQXB61axdaZhmvoFBmrXv1pINDKKMGUcQZaCe5WAQ5QLAIMpAPcvBIMoFgEGUgXqWg0GUCwCDKAP1LAeDKBcABlEG6lkOBlEuAAyiDNSzHAyiXAAYRBmoZzkYRLkAMIgyUM9yMIhyAWAQZaCe5WAQ5QLAIMpAPcvBIMoFgEGUgXqWg0GUCwCDKAP1LAeDKBcABlEG6lkOBlEuAAyiDNSzHAyiXAAYRBmoZzkYRLkAMIgyUM9yMIhyAWAQZaCe5WAQ5QLAIMpAPcvBIMoFgEGUgXqWg0GUCwCDKAP1LAeDKBcABlEG6lkOBlEuAAyiDNSzHAyiXAAYRBmoZzkYRLkAMIgyUM9yMIhyAWAQZaCe5WAQ5QLAIMpAPcvBIMoFgEGUgXqWg0GUCwCDKAP1LAeDKBcABlEG6lkOBlEuAAyiDNSzHAyiXAAYRBmoZzkYRLkAMIgyUM9yMIhyAWAQZaCe5WAQ5QLAIMpAPcvBIMoFgEGUgXqWg0GUCwCDKAP1LAeDKBcABlEG6lkOBlEuAAyiDNSzHAyiXAAYRBmoZzkYRLkAMIgyUM9yMIhyAWAQZaCe5WAQ5QLAIMpAPcvBIMoFgEGUgXqWg0GUCwCDKAP1LAeDKBcABlEG6lkOBlEuAAyiDNSzHAyiXAAYRBmoZzkYRLkAMIgyUM9yMIhyAWAQZaCe5WAQ5QLAIMpAPcvBIMoFgEGUgXqWg0GUCwCDKAP1LAeDKBcABlEG6lkOBlEuAAyiDNSzHAyiXAAYRBmoZzkYRLkAMIgyUM9yMIhyAWAQZaCe5WAQ/QJsstZO6MtC0QcBY8zNRHSlj9h1x2RjjNQQ9DZr7WU1xEGIGghEUfSkiLyqhlDeQ9RlEBKRc5Mk+aL3jDGAUgS6/1Cv7wrcUEpkgDrXZpB5Js4gu4jogQFihKG+SODNRHQFEb18mIDUbZBhYotcG0AABmlAEZFCdQRgkOrYQrkBBGCQBhQRKVRHAAapji2UG0AABmlAEZFCdQRgkOrYQrkBBGCQBhQRKVRHAAapji2UG0AABmlAEZFCdQRgkOrYQrkBBGCQBhQRKVRHAAapji2UG0AABmlAEZFCdQRgkOrYQrkBBGCQBhQRKVRHwBnk7OrkoQwCg02AB3v4GD0IVEsABqmWL9QHnAAMMuAFxPCrJQCDVMsX6gNOAAYZ8AJi+NUSgEGq5Qv1AScAgwx4ATH8agngOUi1fKE+4ATwJH3AC4jhV0sABqmWL9QHnAAMMuAFxPCrJQCDVMsX6gNOAAYZ8AJi+NUSgEGq5Qv1AScAgwx4ATH8agnAINXyhfqAE6jTIE+LyFWtVuvBxx9//Mk0bsaYDUTk1jV8f1rbRb83JUaOlGtt+l0iutetEiYiT46MjHyt0+l83Vr7r2EYvjIIgpNE5AeI6NVEdDIRvYWITqt1hMrB6jLIM61Wa/PevXun847fGONMcmuGfk2JkSHV2ptYZr5pZmbm89PT07N5om/YsOGUkZGRnyeia4hoVZ6+/dC2LoO801r7uaIJG2PuJ6JzUvo3JUZRTOr9ROSfiWi7xuKrW7duPfa55577IBG5RUAHZqvLICd3l4F+oiiVKIo+JCI39erfbrdXT01N/cegxyg6/gr6/Yq19je1dTdv3rx6bm7uD4nojdraVejVYhARWZkkycGiCYRheDkzO6jLbocOHVq1f//+mUGPUXT8iv3cKsSXuusKRc2jpMIw/Dlm/hQRHVdlnLLadRnkR5Mk+XLRwRpj3DWIuxZZdut0Oj82OTn5D4Meo+j4NfqJyH1JkrjlnmvZxsfHz+h0On/XzyapxSBEFFtrx4tQD8PwdGZ+NENfa62NMrRb6r9ZP8UokkLpPiLypSRJaj/tMca8noi+WjqBigTqMogbvjt0X5znWsQY424T3kFEr8iYf1NiZExXrdlUEASnT0xM/K+aYg6hMAzPZeZ7iGgkR7damtZpkIWEDhBR2nOQUSJaQ0QnFqTQlBi90nf/DG5n5gMiMleQ0wvdgiCYnJiY+FYeDWPMm5h5nYisFRFXq28GQbCPiP5tbm7u0bw3TKIoikTk+DxjOLKtu9ZlZkNE12ndUvZhkDIM0PdFArd1j8Q9r8mqADU+Pn5ip9N5BxG5v209Ysww8452u72jzHVh0RyMMT9IRF8iolOLaiz0g0HKEqy5PzPvieP4dTWHpSiKtonIbUS0Pmfsz3XviL0zZ5/SzcMw3OxYlRWCQcoSrL//jdbaG+oMa4y5iIg+XyLmt5j5jXEcxyU0cncNw3A/M6/N3XFRBxikDD0PfbtPt386SZI/ryt0FEXv657b/45GPHeNkSTJf2toZdHoHkXu7h5FLsjSdrk2MEgZeh76MvPFcRzfWUdoY8wl3VOqHYqx7rbWXqio11MqiqI7ReQny8SDQcrQ89C3LoNs2LDh1JGRkS9275S9RjnN2k4RYRDlyg2CXB0GWbNmzTFjY2PuBdGq1o75RWvtZ6rmPagGacozijryOGofEpGfSpLkL5fbucouiMTMZxDRG0Tk3Ip34DtE5DFm3ls0jrX2gV59u98U/YV7OF1U3/Wr8xRrV7vdvmhqauobWQdc5El6Q2IsiyjtCDJvkMLvvWWtTT+0s9b2nDp3kI4gkwcPHtya92MbV4SNGzduCYLAvYvVSilKU2L0TBMG+X88jTGIiJR9m9e96n55rz1H4W3evoiR9p854ykWjiBENDCnWCtXrjz24Ycfdt8zF9rCMLyCmW/p1Vnhe5C+iJEGCAbJfgQZGIOIyKlJkriL2kJbFEW/LiI39urcbrfXTk1N/UuhAN3HxP0SI238OMXKbpBBugb5gLX2Y2nFX+73KIoeE5EtKf0/aK39aANi9EwBR5DsBhmYIwgRPdtutzfmfQXaoYii6JruKwq/l2HHb0oMGCRDsV2TtIv0QTKIy+c7zHxNEARfyTovloi4b9Hfl5FXk2IsmzKOIM08guTYx9G0F4G0a5Cy9Oafo7gn6JVNz8PMiYh8qvswcleSJIUfFKblOkjXIGm54PeMBKo2yMIwjDHulXp1kzhzdDqdi5MkmcyYcuFmMEhhdIPbsS6DOELGGDcfwKWatETkrCRJapmkAQbRrNyAaNVpkHmTfLPE3ABHUr3WWvvJulDDIHWR7q84l1lr3aevtWzzkylMaARLu+ukEWOxRsYpa3uGrfNlRe38h1XvD6y1V9aZvJuAutVq7XQzmBSMu9Namza3ckHp5bsZY75NRKVmSoFB1MtSueCciJxe5d2fpTJYt27dyhUrVtyW8wu9f3fTi8Zx/PHKqRwRIAzDm5j5Q2XjwiBlCfrp/x039Y61dmfd4cMwPJOZ30NE7m+57SFm/vTMzMxdRd7gLpPT1q1bR2dnZ5053us+5yij5frWbZCbmfmrbvGVlIEvTBz3ru6CLT+cM8mmxMiStruAdu+4lZo4TkTuTpLkd7MEXNxm7dq1J4yNjR3fbrdPEJFngyD49jHHHPNfu3fvfjaP1urVq8eOO+64zxLR9+fpd2RbZl4lIuuI6NgyOov71mYQEbkgSZK/yTtwY4y7IH13ln5NiZElV+023RkaL43j+E+1dbPoGWO+QETnZ2lbd5taDMLM18dx/OGiyUVRZEUk7NW/KTGKMlLq9xPdScbvUtLKJGOMcVMYuZka+3KryyAb4jh287YW2sIw/DAz/1pK543W2qlCAYioj2IUTUGlX53PWTReJlRJuodILQYpe/87iqJ3z097uWwqBw8efFmZC8J+iVF1wbPoM/NvxHGc9g8pi9SSbTZt2nRSu912R6q815eFYxbtWItB3LccZW5LGmN+m4g+0CvJTqfzusnJycJzsfZLjKKFrKDfP3Y6nes1J5/etm3by2ZmZq4iol8moldWMGZ1yVoMQkSFH265+++jo6P7uxpueeFeW1NiqBe5jCAzP9LpdD6aJEnhuXnXr19//Ojo6NUi8ktEdEKZ8dTdty6DUHf+o7fHcfzXeRM0xvwJEWWaHZyZL4zj+O5Bj5F3/DW1P8DMdzDzXRMTEzZLzCiK3i4ibuLrTPXLoll3m9oM4hKbX4jzK1U+B2lKjLp3hJzxviEijwZBsFtEvt79sO1rbp3BLvuTmNlNVeqWSviRnJp92bxWg/QlAQwKBHoQgEGwe4AADIJ9AASKEcARpBg39BoSAjDIkBQaaRYjAIMU44ZeQ0IABhmSQiPNYgRgkGLc0GtICNRpkKdF5KpWq/Vg1pkViegyInp/jlo0JUZqyiJyUxAEt5d5Szo1yIA1mP8s2IiI+/hL5UXIugzyTKvV2rx3797pvMyNMc4kt2bo15QYGVKln7XWujmrsC1DIAzDe7vvkZ1XFlBdBilVUGOMW231x1OSbUqMtJreY619a1qjYf/dfQ68YsWKp8pyqMUgnU7nlMnJyf8sOtgoiq4TkY/06t9qtV5T5Ai1oNkvMTIwKrXMQwb9xjTJuGxGz3xrMYiIrEyS5GBR8lhh6jByl1tr/6goy2HqZ4xxs768qUzOziDPENGqMiJpfRXWKHTXIO5aZNlNYY3CvoiRxrLMtzUZtBvVRGHiuKedQdyryidVTCbuTgYwXiRGGIanM7Nb5TZts9baKK3RUr/3WYzUFIIg2DoxMfFYasMhbhCG4UeY+boyCERk2hnELcb+hjJCGfvucou6W2ufyNjezS7+FiJyd2tekbFPU2Kkpett4ri0gfn+XXniuJ0cRZFbyOTqGhNzE51lnTjuxILjakqMtPRVJo5LCzIov1cwcdzHOAzDdzCzm5sIGwiAwCICIvI2Hh8fP7HT6bj/RNhAAAQWEZidnf2eFyb37eepH1ExEPBBoLvUw58lSfIzCwZxF8P3+BgIYoJAnxI401r70ML08O5ulruw/aE+HSyGBQJ1Epiw1m5yAV9aPyGKoneJyB/XOQrEAoE+JXC+tfZvDzPI/LWIm7pzc58OGsMCgcoJdOfzui9JkjcvBDpsBZ4oitaLyD+5ScAqHwkCgED/EXhqdHQ03LNnz0tvAR+1RFUYhm9j5txThPZfrhgRCOQj0Ol0zpicnHxkca8l13DL8ZFSvhGgNQj0J4G2iJyfJMn9Rw5v2UUO518xv5mIRvozJ4wKBFQIHJyf9Pzvl1LruQpo90XGs4nITXs/EGs5qOCCyNAQcG/rjoyMvLXXbPWpy+SOj4+/WkRud990DA05JNp4AiLy2bm5ue379++f6ZVsqkEWOhtjLiGi3yKiUxpPDwk2mcBuItrunpJnSTKzQRYZ5VoicisFvTZLALQBgT4hsEtEPpEkyY4848ltkAXxMAzPZGb3ve+ZRHQqjix5sKNtxQRmRcRNEjIVBMGD3Tmy7i06f9j/AbStirud3vOSAAAAAElFTkSuQmCC;" vertex="1" parent="1">
          <mxGeometry x="417.45" y="271.36" width="54.61" height="54.61" as="geometry" />
        </mxCell>
        <mxCell id="19vD3YccdLdwmTqX8_FJ-9" value="" style="shape=image;verticalLabelPosition=bottom;labelBackgroundColor=default;verticalAlign=top;aspect=fixed;imageAspect=0;image=data:image/png,iVBORw0KGgoAAAANSUhEUgAAAMgAAADICAYAAACtWK6eAAAAAXNSR0IArs4c6QAAIABJREFUeF7tXQuYHUWVPqd7MkEWzbi4qxhYfCC6iC4qAoovROMiICJGWVbdIBoxydyumomJ4Osq60omk9un74SgERFFxTUIqKwuLxF21weuvBRRlnUVNEGFTRCIYTK3z94TO+wwzKOruvve7r5d33e/G5hzqk79Vf/trqpT5yBUpUKgQmBGBLDCpkKgQmBmBCqCVLOjQmAWBCqCVNOjQqAiSDUHKgTsEKieIHa4VVo9gkBFkB4Z6KqbdghUBLHDrdLqEQQqgvTIQFfdtEOgIogdbom0li9fvve8efMOBIBnA8CBiHggMz8VAPYCgMdP+kg7D0afB6Lv/wWAnwPAHWEY3tHX13dHo9G4O5FBlXJ1UNjNOaCUehoAvAoAXhl9y3+nWba16/0OAFwn30R0c5qV93Jd1RMko9EfHh4+KAzDN4ZheDwiHpFRM9NWy8w/A4BvAcBlQRBc38m2y9ZWRZAUR3R4ePhJYRiewMwnAMDxKVadpKrvMfPXWq3W19avXy/EqYoBAhVBDMCaSVQptQ8AvAcA3g0AspbIazmn1WptGBsb+2leDcybXRVBEoxIgYgxuZcPIuIuojSbzbsSdL8nVCuCWA6z1nqYmYdy/sSYsXeIeE8YhrR58+bRTZs2tSxhKL1aRRDDIa7Vake7rnsGMx9tqJpX8R+0t5dHiejivBrYTbsqgsREf/Xq1Qt27NjxIUQcjqlSKLH2WcyXEHGk0WjcUijDMza2IkgMgIeGhl4fhuFZAPDCGOJFFpFDyA8T0TlF7kSatlcEmQXNxYsXu/vuu+/HmPnMNEEvQF0XIeKHfd+/swC2ZmpiRZAZ4JWDvlardS4AvCLTEchv5Xcx88ogCDbl18TsLasIMg3GETkuiXylsh+FP7UgvlZbAGCzfCPi5jAM5f/vg4hPke/oM9Apg6QdZn5LL5OkIsiU2RaR47aMJ+EdiPgNZr7ccZzNfX19W0ZGRoQgc5Z6vb7Hvffeu4/jOPI5CgDk1P7FcyomEOhlklQEmTRxlFJHAsC/J5hLs6mKM+G3HMe5Iu2dIq31Acx8DAAcBwCLMrJ/NRGNZFR3bqutCBINjVLqkPav8U0pj9RPmPnTAHBFEATiop55mUSWdwHA81NucJiIGinXmevqKoK0X/6Hh4f3b7VatwPA41IarXuZOdi5cydt2LBB7nN0vCxZsmSPgYGBFQAgn/3TMiAMw3c2m83PplVf3uvpeYKsWrXq8ePj4/JalcqvLSKuB4AgL1uknuc92XGcFcw8CAALUpqQrycicacvfel5giilvgoAb0phpC8OwzBoNptZrWESmeh5ntxeXIGI8kRJWu5ExGPy8iOQtDOz6fc0QZRSawBgVQoAv4+IRlOoJ/MqtNbHR+uiJyds7FtE9PqEdeRevWcJopSSRawsoK0LIu5g5qVEdKF1JV1QVEqJy4ysI5K+Vo4RUa0LXehYkz1JEKWU3A//ZsJF+a/CMDyu2Wz+pGOjlXJDSqkrUtgWrhHRWMqm5aa6niOI1vpxYRj+ByK+IMEo3NBepB6eQD83qlrrc5h5WRKDwjA8stlsfjdJHXnV7TmCKKU+BAAfSzAgREQ6gX7uVD3PeysiftnWMGa+NAiCNDY6bE3ITK+nCKK1fi4zyy/dEywRPY+I5N556UpSkgDAO4q2FosziD1FEKWULEyXxAFmGpnriUjiWpW2aK0/yMxy78Wm3Do+Pn5ktw5GbQyOo9MzBPE87zhxEIwDyjQyW/r7+58d16HQso1cqCmlPg8Ab7c05qNEVLfUzaVazxAkyYEgIh7u+/4NuRzBlI0Sb+GtW7deaxns7i7Z/PB9X24mlqL0BEGibd1rLUfsVCK6wFK3kGrROcmVALC3aQcQcaXv++tM9fIq3ysE+ZwsIk0HgZk/GQTBe031yiCf4CD1toGBgRfW6/XxMuBQeoJorQ9l5h9aDNaDrusevm7dup6NQqiUkmDYxleOmfn0IAg+ZYF57lRKTxDP8z6OiMZBF5j57CAIzsjdiHXQIM/zFiPiVyyavJqIXmuhlzuV0hNEKSWuIM81RP430cL8N4Z6pRNvr0e+bhOIOwzDQ5vN5o+KDkipCTI0NHRcGIbGW7uIeIbv+2cXfXDTsF9rvYiZxWfLtJxFRB82VcqbfKkJ4nneeYh4miHot42Pjx9RtgMvQwweJW55NvJjIkrqLZzE7FR0S0uQwcHBJ7iu+98A8CQTpBDxvb7vf9JEp+yyWuvD2kEhJIavUWHmvw2CwObpY9ROlsKlJYjnea9rH3b9qyF4D7RarWeOjY393lCv9OJKKTkXMV14F/5kvbQEUUqJy8NHDGfuJUR0kqFOT4grpeTmpdzAjF2Y+ZogCF4TWyGHgmUmyL8BwMsMMV9GRBJutCpTELANqNdqtRaMjY39oaiAlpIg0frjftNBaWdd+svq9Wpm1JRS4o9mFMXRcZxjG42G3N4sZCklQZRSEmXQaFAQ8Rrf9wv9OpD1DFRKySurqbfuCBGtztq2rOovK0FUOwaUbwIaIi73fX+DiU6vyVq+Zl1GRCcWFauyEkQmupGTYfV6FW8KW3gm3E5EB8WrPX9SpSSI1vpqwxyC9xGR0XlJ/oayMxZZ3KtpEVFfZ6xLv5VSEkQpJemN9zOA67Z2EsuDDeR7VlQpJaFVl5sA0Gq1DhgbG5ND28KV0hFE0qYtXLhwwnAkSuN9athvY3Gl1AcA4B9NFMMwfE2z2bzGRCcvsqUjiGSjffjhh7cZAnwhERlfqDJsoxTinuedhojnmXQGEd/o+/7XTHTyIls6gmitFzLzr00ARsS1vu+nEaPXpNlCykYZf//F0Pi3EdEXDXVyIV46gkgUc0T8mQm6iDjk+77RtrBJ/WWSHRoaekEYhjea9KnINwxLRxCbK7aI+He+71tHFjSZLEWXVUpJMlFJNBq7FDmQQ+kIYhnB5CgikhyCVYmBQPtEnWOITRYprFdv6QhieXfhFCK6yHDQe1Lc5gnCzKuCIFhbRMDKSBCJv2uUkoCZVwZBUJpYTllOxFqt9iLHcf7TpI0iu/GUjiArV658+sTExC8MB3Cd7/srTXR6Vdbynn9hg++VjiCStBIR7zGcwBcR0SmGOj0prrVeysxGMa+Y+S1BEGwqImClI0iUtdb0gs53iOioIg5gp222ualZ5DshpSOIpavJHe1FumSBrcocCLQX6fL0WGoIVGF3CUtHEBm4djKY29sZk55jMIgPEJFtUh2DZoovahNIrq+vb6/R0dGHitj7UhLEMo7TQUR0exEHsZM2K6VkfWeSQrrQntJlJcggADQNJ84Hiejjhjo9Ja6UOhIA/t2w0xcQ0amGOrkRLyVBBgcHj3Bd93uGKP+AiI4w1OkpcaWUnBUNmXS6yGcg0s9SEsRyoS54PJ2IfmkyAXpJVin1YwAwuljGzIcFQWCTfiIX0JaSIIKsUkoii7/QBGVEVL7vByY6vSIbZZ0yjtZORIWeY4U2frbJqZSSXOiSE92kfJ2ITjBR6BVZrfWZzGy0RitD/vTSEsTzvBcjomnizYf6+vqeMTo6+rtemfhx+2kRCEOqLnzu9NISJHrN+h8AeFrcSbBrUVZFd38MXJYe0tBqtfYbGxszut1pMladkC07QWSrV7Z8TUqVH2QKWpbnSlcS0etMgM+jbKkJorU+kZkvMQW+yjD1/4glyDB1JhF9whT7vMmXmiBKqQEAkCy1ck3UpFQ5CiO0bFxLolfVF/u+b3RvxGSAOiVbaoJE6xCJ4SSxnIxKleV2l0+bVZZbRPyq7/tvNgI8p8KlJ4jW+hkAcCMzLzAcgypPumWedAA4qZ2f0PjV1nB8OiJeeoIIip7nNRBRmyLKzJ8MgsAoCLZpG3mVV0q9CwA+bWHfD4noMAu9XKr0BEFqtdrBjuNILKd5FqNQ2OuiFn3dpRKdmktOwr0t6tBERBZ6uVTpCYJEgy6Za99jMwqIeLjv+6aHjjZNdV2nXq/vsXXr1mvbCVBtHDfv7uvrO7RMB609Q5Ao4qK4atukOdjS39//7JGRkQe6PoMzNsDyzGOXVcw8GASBRH8vTekZgkRPEeNMrZNG+noiemVpRn6ajmitP8jMZ1n28SoiWmSpm1u1niJIRBJ5isjFH5tyHhG920Yx7zrta8pvbV9Ttg6/ysyLgiC4Ku/9NLWv5wjied4bEDFJKH5ZgxrviJkOTCflk5IDEdf7vm/q0tPJLlq31XMEiZ4inwGAd1qjBnADER2eQD83qlrrc5h5WQKDfuE4zqsajcbdCerIrWqvEkRcT2Qb0+h23JRR/FUYhsc1m02jMKd5mglKqSsAING6wXGcNzcaja/mqV9p2tKTBBEAa7Xa6x3HMU0E8yjsEXEHMy8logvTHJSs64rOOT4LAM9P2NbHieiDCevItXrPEiR61TLOtzfDaL6PiEZzPdKRcVrr45lZTshNQvc8pmuI+E3f948tQp+T2NjTBBHgPM+7GBFPSgJipHtxGIZBs9k0DYuTQtNzVyHnQACwAhFXzC09p8SWMAwXFfn1cs4eRgI9TxBxZmTmrwPAc+OCNpuc7OgAQOD7/p1p1Je0Dgnm7TjOCjnEAwBTh81pmy9yMGpTPHueIALY8PDwQa1W6ytpkaT9S30vMwc7d+6kDRs2PGg6KGnIL1myZI+BgQF5Wshn/zTqlDp6iRzS34og0czJgCRSs+xwyZayRI+/Oa1JOls9WuvnAcCrmVm2sZMuwh/VVBiGL8/rK2RW2FYEmYRsRiTZ3cJtAHC1kCUijGku92nnQL1e77v//vtfHZFC7oAfksVkCcNw/2azeVcWdee5zoogU0YnIonkK0z113eaSSCL+WsQcbN8JiYmtjiOs5mItkw3YWQt4bruU9rJa/ZptVr7OI7zlMhlRkjRl+Ek20ZET8yw/lxXXRFkmuFZtWrVU8fHxyXCYreujQppZKdIwhAJEeRg0+nCTLqZiF7QhXZz02RFkFmGQilldZ89N6ObzJDLiOjEZFUUX7siyBxjqLV+i1y9bW/d9tJrRukcMm2pWhEkBnJa69OY+bwYomUR+QYiXtrf33/JmjVr7i9Lp2z6URFkBtRksT4xMTGEiKfZAFsSnR8iomSnvTQvB5+dxrUiyBTEo6fFkvaW7Ms6PRg5bu+3iPglRPxKo9H4fo7tTN20iiDRSfrExMTbEVFypf9V6iiXqEIJCsfMXypL3Ku5hqanCaKUOpaZT4mIMRdW1d8fjYC8fjV837e+plsEQHuSIOKOwczDAPAPRRikPNvIzF92XXek0WjclGc7bW3rKYIsW7Zsr/7+/pXyVgUAe9mCVuk9BoHtALB2+/btIxs3bpR/l6b0DEG01v8QPTXEma8qGSDAzDc5jjNSpteu0hPE87xXIKI8Md6QwZyoqpwGgTK9dpWWIENDQ/uFYSjE8HIyi29v5+z7RTuCyO8cx/mdfAPAb+Xbdd0HWq3WdsdxtjPzQ/Pnz9++devW7fPnz3fmz5+/YHx8fIHrugsQcUEYhru+o2j1kv9E7npImrndn5x0F3a9dkXG3NcO+yq+Zfcw85a99957S71eL8SrWCkJopR6EwCMAMAzuzRbvoOIt4ZheKvjOLcsWLDg1nq9Pt4JW5RSk8ki/z46p2c6fxDSRJ8rwzC8stlsGqeZzhrT0hHEMv1zUpxvR8Sr2heKrpk3b941o6OjDyWtME39KNPWq9r3UOTzmhRvTqZpptT1K0T8NjNfO2/evKvWrl17T9oNmNZXGoIMDw8/p9VqyVPjeFMQbOQR8SZmvpyZ/yUIgh/Y1NEtHaWUXKoSsoi37iu6Zccc7coT91/lfj8RfbtbNpaCIFrrk5lZyLFfxkDeAQCXO45zeaPRuDbjtjpSved5r0XEkwHgre01w591pFHzRja2Wq1gbGxM8k12tBSeIFrrs5l5dcaoSRTGLxQtQJwpJrVa7WTHcd7fdk78G1PdDsj/ARElMY9EjPnfDrS3q4nCEmRwcPAg13UbAJBlLu4LEfELvu8LQXqiKKXq7eAlH8lxZ++QiDFBEGzohI2FJIjW+oAo/3lWh34XA0CDiL7XiUHIQxtKKVmTCDHkuwhljIhqWRtaOIJE5xuXAcALMwDnBmZuBEHwzxnUndsqC/DUmBY7uasSxUZOJULMdI0UiiAS2UNC5rQTvTwnzdnGzLKd2Ni8eXNj06ZNrTTrzntdRSXHJFzvdV335evWrftZFlgXhiDRXv4tad/XkFChO3fubKxfv/5/sgA4z3UqpdYAgKSlK3xp+4GdEASBhJBNtRSCIEuXLt1zzz33/JVlAs6ZAPt6dJ/hulQRLUhlSinJslUq/zRmfn8QBEL61EruCbJ48WJ34cKF4pawZ1q9Zub1QRCUMmVYHIy01t9g5uPiyBZE5l4AOEc2GZj5zUEQpJbQJ/cEUUpxyoN0JhF9IuU6C1OdUkq2R99bGINnN/QWRNzg+/5GpdQjafUcxzmk0WjI63jikmuCKKX+GwCekbiXf6pgnJnf0Ws7VJOx01p7zCyHbUUvv2fmfwyCoLm7I0opybArfmZSfj0+Pv7XaUTWzy1BtNZXM7N4oqZRftnOSfjSmeLeptFA3usYGho6KgzDrvk0pYWPRFcRchCRXB94pGitf94OJnHgpP91NRG9Nmm7uSSI1nojM6eVj/zbRJQW0ZLi3RX9er3ev23bNiGHbX74rtg9pVG5P7KciC6Yzhit9R+ZeY/Jf0sjPXXuCKKUOgMA/imlEakT0UdTqquw1XTIXy0zfBBRdjDf5fu+pI+Ytsy0VkXEN/q+Lzt2ViVXBEma0H7Kr8cq3/d332izAqcMSlHSztTPBzqFDSL+aOfOnYtnO6eq1Wp/5TiOkGi6cgUR/a2tvbkhiNb6MLlbkdJZxwoikm2/ni/t2F8/bLvoH1pQIGJN7lqt9jLHcf5tpj4y88m2mzO5IEi9Xneid+RXpjCQy4jo3BTqKXwVnue9AxE/V9COfIqITo9ju9b6FGb+4iyy1xGRlRNmLgjied5ZiJhGQnotcfvjgNoLMkopudRlNTG6jM9pRHR+XBu01u9n5lnPthBxie/7xj8WXSeI1noRM18RF4xZHqOpuxkktamb+lHgitROlDvYl6Pav/aSxzF2UUotb7+aS/rt2coPiOiI2JVGgl0lSL1e32Pr1q3XIqKx4ZM7yswfCYLgY6adL7N8Qd1JjMkhY1ir1U50HOeSGON5ChFJ/snYpasE8TxvBBHfF9va6QW/SERvS1hHqdSjC2X/VaROOY5zfKPRuNzG5miDZ87AGcz82SAIJD127NI1ggwNDR0XhuE3Yls6veBtExMTi9avX785YT2lUldKiSPmI24YBejc24hotkX2rF3QWi9k5l/H6OfvBwYG9jWJUdYVgqxevXrBjh075NUqUQZVx3GObTQa34wBTE+JKKUEk2OK0GlmXp7G/fK4Tq2mc6YrBNFan8XMiXatEPEDvu+ndeJehLkUy8YivV4h4hm+758dq2NzCCmlvgsAL5mrLmbeEASBLOpjlY4TZGho6MAwDOV9UeLK2paLiWixrXKZ9ZRSfy8hivLex7Tv5Hiedw4iLovR798T0V/GkNsl0nGCaK0DZk4SjeLOaN3Rc1dk4wxqQfyurhwYGDimXq+HcfoUR8ZwTRt7t6yjBNFaH8rM8vRw4nR6Opl2UOg3+b5/qa1+2fWUUnKmtCjH/fyl67rHZBFkQSklPmdxQs9+gojOjINRRwnSjjwurspJ0p6dR0RpucHHwadwMkopiTr4xLwanlVwBa31n4dheDIixvHBu4CITo2DUccIopR6NQBcE8eoGWR+246e/vJms1mo/f0E/TVWrdVqz3IcR+IH57W8j4hG0zTO87yTEPEkAJBPf8y6r2wHBYwVkbNjBNFaX8LMEk3ctgwTkYQarcoMCOTZtR0RP+37/tK0Bk9r/Rpm/pBldPoft9NYPz+OLR0hyNDQ0NFhGM542WUuQxHxWt/35QlUlVkQ0Fqfzsy582Rm5h+FYfjqsbExiU6TqKxcufLPWq3WhxIGLL+PiJ4Ux5COEGRyxIk4Rk2VaW8LH9NsNiVXRFVmQSBFr+jJrcgdnWe3t44PsAUfEY/xfT/x+GmtTwAAIceLbG3ZrTcwMDA/zol65gSR92LXdW+del/YoIPnENEKA/meFfU87/z29dRYi88YIEmUkA1EdJnneTVEDGLoTCdyFhF92FL3EbUMQqQ+nYgkmMesJXOCJOzY5jAMX9JsNu+aqyPV3wFS2uK9Loo19ZXJmCql5AkQa2E7SS9xZJHBwcFnOo6zFhGTrF+nmx4S5WbO6P2ZEmRwcHB+X1+fPD0mh2Mxmcsfbd9/knwVVYmBgOd5F0XZomJIP1oEEb8bhuG5QRBMewrfvrp7rGTXilsxM28Pw/DosbGx78fVmSqntT6RmSWuQOrJWJn5b4IguHUu2zIliNb6VGaOfTNsirHioXtoL8eymmvwpv5dKSW+aRIVxqT8JwCcG+cGn4E7ByDikO/7vokhU55YmSby6evre/Lo6Kik4u7eK9aUaHdz2TL179XTwxAxz/PejYgbY6rdiojnLliwYGNclw9JMR1loX36bG1IltogCKx3HRO+lsfpfkhEbhzBzJ4gc0WamMO46ukRZ/SmyERnA7K4nq1IyupPAcBG3/f/aNqM1lpLkqE59I4jItn9Mi4dIIfYtJmIFsYxLjOCKKXk3XFlHCOmkameHhbAyYLWdd07Z1CVOMfydNlIRIkyMs3xZhDbjWOqnSk4ssZF7UYiirVVnAlB6vV637Zt2yR2qs3eefX0iDvMU+Si8ElTM2TdLa9drutujPPOHafpWq12tOM40x38PhCG4UubzeZP4tQzWcbzvEsy2Kma1gxE/Kbv+7LpMGfJhCBKqTcDwKY5W59eoHp6WAInakop2dvff1IVDzLzBY7jyCvVjxNU/ShVpZREEZl68chq7JRS4qNnvWax6NP5RHRaHL1MCKK1vpCZbQIpyP2Ag6dG7o7TkUrmTwjMFgurvbV5qeM4F6ZxXWB4ePhJrVbrRgDYL8L+tr6+vsNHR0cfMhmLblwPRsR/8n3/A3HsTJ0gg4OD+7quK69Xe8UxYLIMM385CIK/M9Wr5P8fAaWUrPtmjUksZx4AcJ7v+59Ngt3Q0NC7wzDcvWt26kyR12dqQykl2YrFfaTTpXsXpjzPW4GIY5Y9PlFcGyx1KzXZFVm58uCJiYlYr1KIKIHlzvZ9X85CrIrned8CgDAIgljv9LsbUUp9GQDeatVoMqXuXrlVSgnobzLtQ/sizU3tLKVZ5D43NaXw8p7n3YmIsU6fEXEHM69ptVqfGBsbe9i0822CHB4RRIJkxyop53+J1eZuoa4GbdBaP66d2F12oYwDMqQZ4cIIsRIKW26XygQ/u31PIk6EQmvUlFLrAGDIuoKEil0N++N53msR8UqLPmzv6+s7eHR0tArEYAHeVJXolt3FllWd39/fr0ZGRh6w1J9RrR276iPtP3bTt667geM8z/s4Isa6DD8ZxbYz45eCIJBwNVVJAYHBwcG/cF33bgCYb1nddRMTE6evX7/+Z5b6j1FTSslTQ54eXStdDz2qlLoJAA4xRcA2NL1pO70kr5SStGNvSNBnOW0/iYgSJ/409BFLYPKcqt0LXm0QH3VqLx6aN2/eAWvXrr1nzu5VArERSCFIxu623kFEF8ZueIpgmmn1bG0QPUnl5vu+caat1M5BYmT5mbZ/cnjV9ss33vVKAlav6CqlxCkxjUAJkpdIm+LWdh95frQmfbKpbtryiPge3/fjejo/0nxqBFFKSWYnz7RjzHx6EAQykFVJGYHBwcGDXNeVW3NPSKHqm4nIKNh4SjccE5tu+/TY9eRJ3HpUgdb6P5j5pYb1hRMTEwfMlsHUsL5KfAoCWuuPMnPiO+GTqn1iHG/ghN7cqY6j7dMjVYIopXYCQJ9hz2JlMTWssxKfhIBEHGRmeYrYXnt+DJ5hGB44WwA/pdTbAeDzORmIy4jI+j57Kk+QwcHBF7iuK45rpsXK+9O0kV6X9zxvWcyQnLGhchznyEajIT5djyrRuuOW2BVlKyg7ceJ3dbNtM6kQRGu9lJmN1xGI+Drf920OFm3727N6SilxTFySMgCP8Z3TWt/IzEZrlZRtmlxd4qzHqRDE87zzEDGWf/0k6/9ARAsyBKeqegoCSimJrH9YmsAw81uCINh19yfluFyJzExrdzQVgiil5JEaK9bppF5X649EU8Bcub3tuw8A/Lx9ov14c+2ZNYQkiPiUHOVF/Pn8+fMPX7Nmzf1J+5mYIBL7ynXdHRaGpB7p28KGnlPxPO8ViHhdmTuOiM/yfX+mu/lGXU9MEK31y5n5eqNWxT86DA9tNps/MtWr5JMjoJR6FwB8OnlN+avBcZyXNBoN62B1U3uUmCCWTmix4xLlbwjKYZFqx9cBAOvAbnlEwXXd565bt+6nadqWmCCe540homlw6RuISC7aVKWLCGitD4tS4nXRilSa/o3ruovSJodYlpggWuuLmVmy+5iUKmK7CVoZyg4PD+/farUk5u7BGTaTZdU3u67791mQIxWCxM1PPQUh4wv+WSLc63UvWbJkj4GBAXHkkxPwIhXx/5PD5kSB8GbrcOIniFJKbgE+zQRVRDzY9/3bTHQq2ewRyJP/1By9lZNxIUbmAT7SIIhc9I+bPFH6/Uci2jP74a5asEEgCvonXtkvs9HvgE7mT43JfUhEkOXLl+89b968ew1BuZ6IXmmoU4l3GIEofJMQxSZ8bOrWIuKlYRieHwRB7BwlaRiRiCBa6+cx85xJSKYY2iCi4TSMr+rIFgGJnhiGocfMsiVsHAgwJesuCsPwM81mM0kKcWtTEhFEKfUqALjWpHVm9oIgaJroVLLdRaBWqx3sOI4cLkr83Od1yJrzHcf5zHQewx1qf1cz3SDI22dK89XJjldt2SHQDhd6SPvz5ZlxAAABCElEQVR+yesQUcgiH9M7QDM1/Gv5sZWU35KAJ06CTbsemGl1gyDHd/o90gySSjouAlGaC0nseSQAiCPkUyd97z1DPbKpc9+kz9WIeJXv+zfEbbeTcokI0klDq7aKhUC9Xu/ftm3bbsI8vHPnzvuY+b4NGzY8WKSeVAQp0mhVtnYcgYogHYe8arBICFQEKdJoVbZ2HIGKIB2HvGqwSAhUBCnSaFW2dhyBiiAdh7xqsEgIVAQp0mhVtnYcgYogHYe8arBICFQEKdJoVbZ2HIGKIB2HvGqwSAhUBCnSaFW2dhyBiiAdh7xqsEgIVAQp0mhVtnYcgYogHYe8arBICFQEKdJoVbZ2HIH/A3Vd3m5QEnFcAAAAAElFTkSuQmCC;strokeWidth=1.5;" vertex="1" parent="1">
          <mxGeometry x="966" y="276.97" width="25.61" height="25.61" as="geometry" />
        </mxCell>
        <mxCell id="19vD3YccdLdwmTqX8_FJ-10" value="" style="shape=image;verticalLabelPosition=bottom;labelBackgroundColor=default;verticalAlign=top;aspect=fixed;imageAspect=0;image=data:image/png,iVBORw0KGgoAAAANSUhEUgAAAMgAAADICAYAAACtWK6eAAAAAXNSR0IArs4c6QAAFcNJREFUeF7tnX30dtWYx79eysvoUTSJyVARsYRamlREmCQkrw9jicwy1mDICktWGZrBIo8V0lpZ3hrhif4IUQ2NeKjGohlvK0VlMJIaJW/PWGrO55m9H+d3P/fLeT/7nPO91trr3Pfvd/be1/7u87333mdf+7puI0tdBNZJurukncOVz/PSnSVtH9Idcp9n/4Y+/ytpc7jyOab8334r6QZJ1+eu8z5zn6UiArepmG9K2e4iaXdJe8y58rc7Jg7GjZKuDuma3Gf+xncTaEkHmiB/Aud+kh4kae+QHhgIsUviBKir3s8DaS6X9D1J3w1XyDN5mSJB9pT08BkyQIztJv80rAXgNzOEgTj/HqZ0k4FqCgQ5QNJBkg4MadfJ9G47Db1C0lclfS0kRp3RytgIsoOkx84Q4raj7b00GsYaJ0+YL6WhVjNajIEgh0p6nKTHS9q/GVhcSg0Efi/pPEnnZ/3ylbCmqVFcv1mHSJCHSjokl3ilakkXARb/F2Y/YJvCSPNf6aq6rWZDIcheko4MifWEZbgIfEZSTNem3oyUCbJjjhSQw2uJ1J+mcvr9KkcUCJPkfkyKBHlSjhj3KIe57x4oAj/JkeXzKbUhFYLw6vU5ktZnCzxey1qmi8Alkj6RbdZulNT7FKxvghwcSAE5sGWyGIGIAHZlkASysMDvRfoiyIvCiHFYL612pUNDgFfGkOVDXSveNUFeIom0X9cNdX2jQOBSSadlNnIf6ao1XRHExOiqR6dRz0WBKIwqrUrbBDExWu2+yRfO1IsR5Zy2kGiLIJh+nBB2u9vS3eUagYjAGZJOkvSDpiFpmiAcHjoxOw33+qYVdXlGYAUCP802k98s6fQmkWqSIEcEcthgsMkeclllETgrjCbfKZtx3v1NEORO2WGjf5Z0bBMKuQwj0AACnNVnynVK3bLqEmSfoMRj6iri/EagBQT+RdJrJHGsuJLUIcjTJZ1dqVZnMgLdIfCtQJILqlRZlSAbPKWqArfz9IgAI8nJZeuvQhAMyGxlWxZp358CAky5XlBGkbIE+aUkzmlYjMBQEeDsyVOLKl+GIFdKwneUxQgMHQGOALOZvVKKEgQXL49cWZpvMALDQYBzJyuf6SIEwc6l8JA0HHysqRHY4ttrqY+DVQQ5VdLfG0gjMGIE3ifpZYvat4wgvBZ7+4iBcdOMQETg+ZLOnAfHIoI8K/Ndi02LxQhMBQFOt26zmTiPII+QdK6kP58KMm6nEcimWb+QBEkuy6MxjyC4XXmiITMCE0QAl6mHLyMIu4ydnfedYAe4yekjcHQWLIkDWFskP4IQCuxiSfum3wZraARaQ+CbYX+EsHdrCHKcpHe0Vq0LNgLDQWCrYWMcQXaShFnwbsNpgzU1Aq0hgCvUhxEcNRIEz4Z4sLMYASPw/wjg3PDDkSAfkHSMkTECRmArAhwGfCYEYXF+0wDCGbvvjECXCLBIXwdBfHS2S9hd15AQWA9B3inp1UPS2roagY4Q2ABBWJyzSLcYASOwFoGNEIRIpMTpsBgBI7AWgU0Q5IfZ1voeRsYIGIFtELgKghDX+g4GxwgYgW0Q2AxBbjUwRsAIzEfABPGTYQSWIGCC+PEwAiaInwEjUA0BjyDVcHOuiSBggkyko93MagiYINVwc66JIGCCTKSj3cxqCJgg1XBzrokgYIJMpKPdzGoImCDVcHOuiSBggkyko93MagiYINVwc66JIGCCTKSj3cxqCJgg1XBzrokgYIJMpKPdzGoImCDVcHOuiSBggkyko93MagiYINVwc66JIGCCTKSj3cxqCJgg1XBzrokgYIJMpKPdzGoIVCHIpyU9tVp1zmUEekXgnCxI55FlNKhCkH+UtDnzpfXWMhX5XiPQIwJ4an9DFkHtzzIdeH4LS1WCvEnSoyWdnIWMJmy0xQikisC/STo+i9x8SeYD7o1dEARyRBbeKYsr8jZJ/5AqOtZr0gicJOnEHAI8t5CksNQZQfKVPD8Q5S8K1+wbjUB7CHxd0glZtNrzZ6roZASBhYwis/KAsC45qr12u2QjsBKBdwVy/GbOnZ0QJD/FmqftcyW9StL+K5viG4xAcwh8JguZtkHSl5YU2ckUaxVB0I+pGyR5paT7NIeBSzIC2yDwn4EYZxTAJhmCRF3vGUgCWRxioUAP+pbCCPwyEINR47cFcyVHkKg3QdkhydEFG+LbjMAyBN4fyHF5SZiSJUhsxxMlvZj40yUb5tuNAAh8ShLkuKAiHMkTJLZrnxA4lOChe1ZsrLNNAwFCBG4M6Vs1mzwYgsR23jFHlMNrNt7Zx4XA53PEIExgEzI4guQb/cgcWXZtAg2XMTgErs2R4uIWtB80QSIedw9EOULSYZJu1wJQLjIdBP4YdrzPDeS4oUXVRkGQPD67Z0ZmLOwhCokpmWX4CDBlwgyEdF72dvPqjprUCUFulnScpNM7alSsZrdAkkiYHTqu39XVQ4DnJhKC60/qFVc6Nwa1bwkm74UzVzFWjIVflH2Akcu29gsrUvLGe8yQ5W4l8/v2bhD4nxlS/LybatfU8uRg0VvpWEYdgkQt3hc2bXgd14fcVdJB2bvxA8OVz9v1oYjrFAeTOH/BApvzF1x/1RMuD5T0OkkvrFN/EwSh/l9IOkXSeyXdVEehBvLumI1qjwkHuiCLjSYbAHVJEV+R9MUECBFV5Afz5dlzeKwkXvjUkqYIEpVg6x+SnFpLq2YzR8IcEoiD2YulOgLfzH58Lgyk+FqPI8S8FrwskIPRoxFpmiBRKYbX90j6WCNaNlvInbPXiXvnEmDG783WNNzS/iCJH7t5qahhYJetf56kV2RvxA5outK2CBL1ZDf0g8GGpmnd2ygvEiVPGv4GqcYo1y8gQV/rybIYY9N3jKTWrDDaJkhs8LclnRXSFWVRSOB+3pKxu78sYdq/cwK63iKJHemfhSufF6VfJ6BvWRX2kvTskB5SNnPZ+7siSNSLoTsSBf9aY5Pb50jE2genFow+XFeleB+YMI35XS7lvy/6H6MBRLhubKCG9uCLLRKjs7eUXRMk33ffCGQ5W9JQhvSRPnvJNgtL72cEYuzXh5Z9EiS2F1sczhN/NlzH+gvYR/8Osc5dJD1FEht8XHu1xUuBIPlOvDFHFAiT4huTIT50qevM9DISgivT0yQkNYLkQflxjiyYszAnt4wHAQxPH5sbLe6dYtNSJkgeLxagmySxa/sFSXVPlqXYF1PQidfnWDmwaXuoJKZTSctQCDILIq+KvyyJfRaSR5c0HzNGCYjwhJAenKaai7UaKkFmW8QULI4wXL126edJZC1xcGaG8qhwZbQYtIyFILOdgL0Q07FImj7MrAf9YBRUnmMHkQxc9y2YbzC3jZUgsx1wZSALxPl+MK/gJYClOAIsollD4IMZIjBS3L949mHeORWCzOsdpmGQJRImfuY61SkaUyQIEFMkBN/Hao+2lLlTJsgyYJiS/Sg7bHNNuPI5n/o6BFT3Z3hd8JWMv+R8um/4zpTJkkPABKn2OOAXFsJgEIgXDo6Wcl30uS1CYURJ4mBQ/DzvO4aUEGKnas2dbq6+CHKZJLxyszbgSqcynD9I0tNG2B23ZmHAOI5aJNH87XMJp9/57/nPI4QqrSb1QRDCJ7x9yTz/bzPCvDtYv6aFlrWZHAJdEwSXPbNhsRaBznFOvC1ajEBvCHRJkDMlEcuwqPDWZF4YraL5fZ8RqI1AVwS5tOJ54fXZK8eP126lCzACFRHoiiB4m8B/VhXBA5+j51ZBznlqI9AVQTBrruqBEUdkg7fpqd1TLqAXBLoiCGbNOJerIqdlZ61fWiWj8xiBugiYIHURdP5RI9AVQTzFGvVjNN7GdUUQL9LH+wyNumVdEcSveUf9GI23cV0RBAS9UTje52i0LeuSIIBoU5PRPkrjbFjXBAFFGyuO81kaZav6IAhATs3cfZQPzxQaVYUgOJ3GkbDFCAwNgXOyH+cjyyhdhSAE7tws6a1lKvK9RqBHBDio9oYQ4Zbnt7BUJQjriEdLOllSpeihhTX0jUagHgLY8h0fYii+MSuqdYJAjlgJMS/elp3JJga1xQikhsBJIQR01IvnFpIUljojSL4SDkJBFJulF4beN7aIwNclnTDn9GonIwgsZBSZFXwnsS45qsWGu2gjsAqBdwVyzDuN2glB8lOseco+V9KrHJ98VT/6/w0jQBCmDSvOHXUyxVpFENrN1A2SvDL4Y2oYCxdnBLYigNsoiHFGAUySIUjUFYdlkASy4N/JYgSaQgDnfRCDVNRVbHIEiWA8LJDk6KbQcTmTRuD9gRiXl0QhWYLEdmCs+GJJBIC3GIGyCHwqe1MKOS4omzHcnzxBYrv2kfSckAj1azECixAgRPjGkOqG3hsMQSIYhOiKRDncz4gRyCFAaL1IjN83hMzgCJJvN25GI1l2bQgQFzMsBK7NkeLiFlQfNEEiHrjyhyhHSDqs70DyLXSSi1yLwB/Djve5gRyEkGhLRkGQPDi7h1OIEIXElMwyfASYMuHEnHSepKs7alInBLlZ0nGSTu+oUbGa3QJJeBMGWXbouH5XVw8BnptICK64lO1SMKh9SzB5L1xvFWPFWPhF2QcYWdWlaGEl59xIqDBIEslCAB5LeggQeStPij6iDT85WPRWOpZRhyCxO3BKzW4mr+P6kLtKOih7N35guPJ5uz4UcZ1bImhx/oIF9iXh2lb4uVVwE7HsdVmcyReuunHZ/5sgCOXjd/cUSe+VdFMdhRrIu2Nwds2BLsiyfwNluojFCBCP/osJECJqyA/my7Pn8NgQu7FW3zVFkKgEW/+Q5NRaWjWbORLmkEAczF4s1REg1vyFgRREAetrhJjXAjx4Qg5Gj0akaYJEpRhe3yPpY41o2WwhRK7aO5cAM35vtqbhlvYHSfzYzUtFDQO7bP3zsgjDr6gYpGmpnm0RJFbKbugHJWFDMwSJRMmThr9BqjHK9QtI0Nd6sizG2PQdI6k1K4y2CRIb/O0sxPNZIV1RFoUE7uctGbv7yxKm/TsnoOstWTwVdqSJ4c51Wfp1AvqWVWEvSc8O6SFlM5e9vyuCRL0YuiNR8K81Nrl9jkSsfXBqwejDdVWK94EJ05jf5VL++6L/MRpAhuvGBmpoD77YIjE6e0vZNUHyffeNQJaze3xFPNJnaTTNwtL7GYEY+/XRqj4JEtuLLQ7niT8brmP9Beyjf4dYJ+H6niKJDT6ut+uzESkQJN/+G3NEgTApvjHps7/GWjfTy0gIrkxPk5DUCJIH5cc5smDOwpzcMh4EMDwlNF8cLe6dYtNSJkgeLxagmySxa/sFSXVPlqXYF1PQidfnhPRm0/ZQSUynkpahEGQWRF4Vf1kS+ywkjy5pPmaMEhDhCSE9OE01F2sFQbDNH7pLHqZgcYTh6rVLP08ia4mDMzOUR4Uro8WQZTMEYdd0jyG3Yo7u2AsxHYuk6cPMemSQzm0Oxw4iGbjuO7JGXwVBeJBg/ZjlykAWiPP9YF7BSwBLcQRYRLOGwAczROCZuX/x7IO8cxME+UQ4Az7IFtRQmmkYZImEiZ+5TnWKxhQJAsQUCcH3sdqjLXuENkKQd2Ymy6+u8aCNMStTsh9lh22uCVc+51NKJt5l8F8XfCXfZ+Z63/CdKZPlTwhsgCBPl4S5h6U4AviFhTAYBOKFg6OlXBd9botQGFGS8AQTP8/7jiElpNipeBN9ZzYVXw9Btg+nALv2GEKQExL7GgTe4fQfKckNo5qPy61ZGDCOoxZJVEWfxMQbxvz3/Oeaajn7EgToq3UQBPlAsKvvAjEOUXGGHWPFefJPIeBiF7q4DiOwCAFmVc+MBMFRG4v1tgU7GxyEFRGOc+Jt0WIE+kDgRZI+HAnC3BTzDXxPtSVnSiKWYVHhrcm8MFpF8/s+I1AVAXx24bvghkgQCsIZ3Duqlrgi36UVzwuvz145frwlnVysEViEwGtCiPMtodKisPjDn1Ebu6EcqMfbSRX5aebF8V5VMjqPEaiAAJvJTO1ZpK8hCN9fIOkjFQpdleWvszdU/7rqpgX/n8JOf0VonK0FBIiCtjXeYX4EiXVhHYtLzyblL7PIUlVNOz5U1ztekw1xWaNGAEfaazykzCMINjb82je5L3KXGgtu1kWsjyxGoE0E8AjKwIBPt60yjyD8k6i0BGRvSnD/yaZgFflcm36PqijkPKNEAP9azFbWyCKCcNNHJf1NQ1BseadcsSwsce9XMa+zGYEiCDBLee28G5cRBJMPplpYctaVsnsgsT5MTzjTYTECbSGARx18bs2VZQQhw1GSPtmQ65U3ZQUST6SMeDe9DFq+tywC35X0tGwD+wdVCUI+YgViP4WpdF1ZRch8+dhr4cLeYgTaQABy4Knxe8sKL/rA4p6FaRJm03Xl71aEb3uWJAwW8cFqMQJtIFCIHFRclCDc+1dh4d7EghlL3q9KYgp1QTBx50wzCcNJixFoC4HC5ChLEO7fR9JpIdxZWw1wuUagLQR44cMMZum0Kl95mREk5mPTj9diL22rFS7XCLSAAGva4yVtLlN2FYLE8iEIRIEwFiOQKgJXBWJsrKJgHYJQH5FlIQlXixFIDQFIwagBSSpJXYJQKSPIm/1KthL+ztQOAjjPOClEXq5VQxMEiQqwX3Kiwy7X6g9nro8AEcwgx3fqF1XuNW+R+rAAhiSvL3Kz7zECDSLAwTpmMqc3WGapfZAy9T5O0gnBzX2ZfL7XCFRBgANOjBoLTUaqFEqeJqdY83R4iSRSL/HlqoLifINB4PywL3dOWxq3TZCot4nSVg9Os9yLAjEqvbotA1lXBDFRyvSK712EAN5xsORow2/C3Dq7JkhUggNU2Fwd5mfBCBRAgKkUo8U2J/4K5K11S18EiUpz/h3fV5Bl51otceaxIUBcSkiBx8/eDs31TZDYqbsGkkCWA8bW025PKQRwmgApIMe1pXK2cHMqBMk37UmSjgzJ8Spa6PQEi8TVJ0dfSbidSkZSJEgEh2DykShcb5sMalakCQSImRJJwTXJqF4pEyTfCZwujGTBkYNluAjkSdH7FGoVjEMhSL4dDw079ASjJxFdyZIuAlcH7zi4kCURmWswMkSCzIJLoHpMWx5vQ8lknrsLs77A4R/x6xcFSkpG2WWKjIEg+fbtIAkHE0zDOKNC8tql3UfxluBbAP8C+BkgpF6S64kqMIyNIPMw4LVxnjC8UrZUR4B1A2SIhFjjy7Z6sWnmnAJBZpHfMwsD94gQQYgoQg+XtEua3dO7VtdlL0cuy5yr/UdI+Ff+Ye9adajAFAkyD14C9ECWSBiuTbg36rAra1eFqThEyBPiv2uXOvACTJDFHUj4ZcJTQx6usyn+nftSlpuzIwc86CQOFcXPs9dS3j5SbnCTupkg9dHEJSuvmrEl47ooEZR0WezzGA8djQj/xQM7G1c9/zcWwpy9xmYpXud9Hs2CuX5XlS/h/wBuuxfxIMDMMwAAAABJRU5ErkJggg==;" vertex="1" parent="1">
          <mxGeometry x="481.09000000000003" y="862" width="39" height="39" as="geometry" />
        </mxCell>
      </root>
    </mxGraphModel>
  </diagram>
</mxfile>
